<svg width="493" height="170" viewBox="0 0 493 170" fill="none" xmlns="http://www.w3.org/2000/svg">
<rect width="493" height="170" rx="33" fill="#FFE6EC"/>
<g clip-path="url(#clip0_682:2487)">
<path d="M19.1221 64.3703L72.7938 133L493 37.2769L19.1221 64.3703Z" fill="#D84618"/>
<path d="M51.5124 126.498C49.9787 126.493 48.4923 125.967 47.2959 125.006C46.0996 124.046 45.2642 122.707 44.9263 121.21C44.3115 118.691 43.4973 116.225 42.4914 113.835C41.8453 112.299 41.7902 110.578 42.3368 109.004C42.8833 107.43 43.9928 106.114 45.4513 105.31H34.7556C34.7015 107.063 33.9682 108.727 32.7109 109.948C31.4536 111.17 29.7709 111.854 28.0186 111.856H21.5965C19.8096 111.854 18.0965 111.143 16.833 109.878C15.5695 108.614 14.8588 106.899 14.8568 105.111V67.4545C14.8564 66.4799 15.0674 65.5169 15.4752 64.6319C15.8831 63.747 16.478 62.9612 17.2189 62.3288H14.7397C12.9527 62.3266 11.2396 61.6151 9.97606 60.3502C8.71258 59.0854 8.00192 57.3706 8 55.5819V47.4715C8.00191 45.6829 8.71256 43.9681 9.97605 42.7032C11.2395 41.4384 12.9527 40.7268 14.7397 40.7246H79.6673C81.4543 40.7268 83.1674 41.4384 84.4309 42.7032C85.6944 43.9681 86.4051 45.6829 86.407 47.4715V55.5819C86.4051 57.3705 85.6944 59.0853 84.4309 60.3502C83.1674 61.615 81.4543 62.3266 79.6673 62.3288H77.8365V108.032C77.8365 114.016 76.8963 120.596 69.9202 124.027L69.7989 124.085C65.023 126.293 58.9586 126.481 51.5272 126.498H51.5124ZM53.9305 104.626C54.9757 104.64 56.0836 104.647 57.2634 104.648V100.989C56.6477 102.577 55.458 103.875 53.9305 104.626H53.9305ZM37.6633 84.2225V81.7087H34.7582V84.2225H37.6633ZM55.3514 62.3288C56.2023 63.0567 56.8593 63.9847 57.2634 65.0295L57.2639 62.3288H55.3514Z" fill="#15047C"/>
<path d="M146.292 126.92C144.96 126.922 143.657 126.531 142.546 125.795C142.159 125.863 141.766 125.897 141.373 125.897H136.516C135.37 125.898 134.243 125.606 133.243 125.047C132.242 125.606 131.115 125.898 129.97 125.897H125.113C124.26 125.898 123.415 125.736 122.623 125.42C121.484 126.236 120.117 126.674 118.716 126.672H112.965C111.178 126.67 109.465 125.959 108.201 124.694C106.938 123.429 106.227 121.714 106.225 119.926V112.723C102.81 113.847 99.3698 114.962 96.2173 115.983L91.6371 117.469C90.7153 117.77 89.7394 117.867 88.7763 117.756C87.8132 117.644 86.8856 117.325 86.0569 116.822C85.2283 116.318 84.5181 115.641 83.975 114.837C83.432 114.033 83.0688 113.121 82.9105 112.164L81.6532 104.637C81.3654 102.967 81.7199 101.25 82.6453 99.8305C83.5707 98.4112 84.9985 97.3951 86.6417 96.9863C87.3092 96.8162 87.9966 96.6335 88.7105 96.4381V85.2321C86.9829 85.1451 85.3546 84.3975 84.1619 83.1435C82.9691 81.8895 82.303 80.225 82.3011 78.4936V71.3306C82.3031 69.5993 82.9692 67.935 84.162 66.6812C85.3547 65.4274 86.983 64.6799 88.7105 64.5932V60.6917H88.519C86.7321 60.6897 85.0189 59.9784 83.7554 58.7137C82.4919 57.449 81.7812 55.7343 81.7793 53.9458V46.6096C81.7812 44.821 82.4919 43.1061 83.7553 41.8413C85.0188 40.5765 86.732 39.8649 88.519 39.8627H108.282C108.798 39.8625 109.313 39.9217 109.816 40.0391C111.006 39.0878 112.485 38.5705 114.008 38.572H119.76C121.047 38.5709 122.308 38.9405 123.391 39.6366C123.829 38.2777 124.686 37.0926 125.839 36.2514C126.992 35.4103 128.381 34.9563 129.808 34.9546H135.783C137.248 34.9564 138.672 35.4347 139.841 36.3173C141.01 37.1999 141.861 38.4391 142.265 39.8479C143.411 39.0169 144.79 38.5703 146.205 38.572H152.329C154.116 38.574 155.829 39.2853 157.092 40.55C158.356 41.8147 159.066 43.5293 159.068 45.3179V65.0569C159.069 65.5218 159.021 65.9854 158.926 66.4405C159.736 67.0702 160.392 67.877 160.843 68.7993C161.294 69.7215 161.528 70.7347 161.528 71.7615V78.7524C161.53 80.414 160.916 82.0174 159.806 83.2528C160.35 84.2451 160.634 85.3591 160.633 86.491V111.649C160.633 115.57 160.122 120.474 156.163 123.718C153.046 126.403 149.509 126.844 146.455 126.918L146.292 126.92Z" fill="#15047C"/>
<path d="M175.116 126.672C173.329 126.67 171.616 125.959 170.352 124.694C169.089 123.429 168.378 121.714 168.376 119.926V103.869L166.93 104.299C166.036 104.566 165.096 104.644 164.17 104.528C163.244 104.412 162.353 104.105 161.552 103.627C160.751 103.148 160.058 102.508 159.517 101.747C158.976 100.986 158.6 100.121 158.41 99.2064L156.719 91.0506C156.363 89.3098 156.706 87.4989 157.673 86.0089C158.64 84.5189 160.154 83.4694 161.887 83.087C162.225 83.013 162.571 82.9366 162.926 82.8578C161.852 82.3613 160.604 81.8195 159.607 81.4193C158.032 80.7764 156.756 79.5629 156.035 78.0206C155.313 76.4783 155.199 74.7205 155.715 73.0976C157.447 67.691 158.761 59.0377 159.513 48.0703C159.578 47.1247 159.841 46.2033 160.285 45.3662C160.729 44.5292 161.345 43.7953 162.091 43.2124C162.838 42.6296 163.699 42.2109 164.618 41.9836C165.538 41.7564 166.495 41.7258 167.427 41.8937L168.376 42.0648V41.786C168.378 39.9974 169.089 38.2825 170.352 37.0177C171.616 35.7529 173.329 35.0413 175.116 35.0391H181.315C183.102 35.0414 184.815 35.753 186.078 37.0178C187.342 38.2827 188.052 39.9974 188.054 41.786V43.9258C189.207 43.0763 190.602 42.6188 192.034 42.6204H199.305V41.7004C199.307 39.9119 200.018 38.1972 201.282 36.9325C202.545 35.6678 204.259 34.9565 206.046 34.9546H212.616C214.403 34.9565 216.117 35.6678 217.38 36.9325C218.644 38.1971 219.355 39.9118 219.357 41.7004V42.6204H227.523C229.31 42.6223 231.023 43.3336 232.287 44.5983C233.551 45.863 234.261 47.5777 234.263 49.3662V56.4427C234.262 57.6658 233.93 58.8658 233.301 59.9145C232.672 60.9631 231.77 61.8209 230.691 62.3964C231.371 63.4713 231.731 64.7175 231.73 65.9895V73.2402C231.731 74.4768 231.391 75.6897 230.746 76.7446C232.215 77.1025 233.522 77.9432 234.457 79.1324C235.392 80.3215 235.901 81.7903 235.903 83.3035V90.4676C235.901 92.2562 235.19 93.9709 233.926 95.2355C232.662 96.5002 230.949 97.2115 229.162 97.2134H228.748V109.582C228.748 113.035 228.748 120.22 222.024 123.91C218.33 125.932 213.699 126.37 207.878 126.409H207.833C206.232 126.416 204.682 125.85 203.462 124.812C202.242 123.774 201.434 122.334 201.183 120.751C200.775 118.478 200.194 116.239 199.443 114.055C198.365 113.389 197.497 112.432 196.937 111.294C194.997 107.616 192.76 104.101 190.249 100.785C189.595 99.9112 189.161 98.8916 188.985 97.8134L188.054 98.0933V119.926C188.052 121.714 187.342 123.429 186.078 124.694C184.815 125.959 183.102 126.67 181.315 126.672H175.116ZM188.054 76.9516C188.405 76.9722 188.753 77.0206 189.096 77.0963C189.139 77.0773 189.183 77.0593 189.226 77.0414C188.495 75.9747 188.088 74.7191 188.054 73.4261L188.054 76.9516Z" fill="#15047C"/>
<path d="M242.925 127.069C241.738 127.067 240.572 126.751 239.546 126.154C238.52 125.556 237.669 124.698 237.08 123.667C236.216 122.186 235.271 120.753 234.249 119.376C233.566 118.455 233.129 117.373 232.98 116.235C232.832 115.097 232.976 113.94 233.399 112.873C233.823 111.806 234.511 110.866 235.4 110.14C236.288 109.414 237.347 108.928 238.476 108.727C239.298 108.58 240.13 108.42 240.963 108.247C240.963 108.207 240.961 82.4427 240.961 82.4427C240.96 80.9415 241.461 79.483 242.385 78.3004C242.369 78.1166 242.361 77.9318 242.36 77.7469H238.013C236.226 77.745 234.513 77.0337 233.249 75.7691C231.986 74.5044 231.275 72.7897 231.272 71.0011V65.9039C231.272 64.9919 231.457 64.0893 231.816 63.251C232.175 62.4127 232.701 61.6562 233.361 61.0275V48.6776C233.363 46.889 234.073 45.1742 235.337 43.9093C236.6 42.6445 238.313 41.9329 240.1 41.9307H258.93C259.137 40.7156 259.672 39.5805 260.479 38.649C261.285 37.7175 262.332 37.0253 263.504 36.6477L269.172 34.8205C270.683 34.3319 272.317 34.3935 273.787 34.9944C275.257 35.5952 276.468 36.6967 277.205 38.1042C277.734 39.1118 278.4 40.4457 279.053 41.9307H301.301C303.088 41.9329 304.801 42.6445 306.065 43.9093C307.328 45.1742 308.039 46.889 308.041 48.6776V60.7593C308.788 61.3918 309.389 62.1797 309.8 63.0682C310.212 63.9567 310.426 64.9245 310.426 65.904V71.0011C310.424 72.7896 309.713 74.5043 308.449 75.769C307.186 77.0336 305.473 77.745 303.686 77.7469H298.906C300.129 79.0034 300.813 80.6886 300.811 82.4427V108.125C300.811 108.277 300.806 108.428 300.796 108.577C301.494 108.824 302.167 109.066 302.81 109.299C303.865 109.682 304.808 110.322 305.553 111.162C306.299 112.002 306.822 113.015 307.076 114.11C307.33 115.204 307.307 116.344 307.009 117.427C306.71 118.51 306.146 119.501 305.368 120.31L301.037 124.82C300.09 125.807 298.866 126.482 297.526 126.755C296.187 127.028 294.796 126.886 293.539 126.348C290.499 125.046 282.487 121.724 273.664 118.966C272.598 118.633 271.631 118.041 270.851 117.242C270.307 117.875 269.65 118.401 268.913 118.792C261.084 122.695 252.734 125.446 244.12 126.962C243.726 127.033 243.326 127.069 242.925 127.069V127.069Z" fill="#15047C"/>
<path d="M328.246 126.353C326.59 126.331 325 125.698 323.78 124.577C322.56 123.455 321.797 121.922 321.636 120.272C321.543 119.397 321.388 118.529 321.173 117.676L320.609 117.751C320.315 117.79 320.019 117.809 319.723 117.809C319.574 117.809 319.425 117.804 319.277 117.794C318.382 118.956 317.134 119.794 315.72 120.183C314.307 120.571 312.806 120.488 311.444 119.946L308.78 118.888C307.255 118.277 306.004 117.131 305.262 115.664C304.52 114.197 304.336 112.51 304.746 110.918C305.917 105.863 306.753 100.736 307.25 95.5713C307.36 94.4761 307.737 93.4247 308.348 92.5094C308.188 91.9282 308.108 91.3282 308.108 90.7255V44.9738C308.11 43.1852 308.821 41.4703 310.084 40.2055C311.348 38.9407 313.061 38.2291 314.848 38.2269H338.413C340.2 38.2291 341.913 38.9407 343.176 40.2055C344.44 41.4703 345.151 43.1852 345.152 44.9738V46.8232C347.804 44.028 350.113 40.9259 352.03 37.5826C352.828 36.1482 354.121 35.0547 355.668 34.5076C357.214 33.9605 358.907 33.9975 360.428 34.6116L366.28 36.9721C367.624 37.515 368.757 38.4765 369.512 39.7144C370.267 40.9522 370.603 42.4005 370.471 43.8447C373.927 46.8411 377.758 49.3746 381.867 51.3816C383.475 52.1437 384.718 53.5089 385.328 55.1819C385.937 56.8548 385.864 58.7008 385.124 60.3201C384.271 62.2781 383.567 64.2976 383.018 66.3615C382.74 67.4125 382.21 68.38 381.475 69.1804C382.235 70.2964 382.641 71.6161 382.64 72.9669V91.6729C382.639 93.0075 382.242 94.3118 381.501 95.4212C380.76 96.5305 379.707 97.3954 378.475 97.9065C378.152 99.871 377.796 101.714 377.397 103.473C379.378 105.073 381.274 106.777 383.077 108.577C384.198 109.721 384.874 111.228 384.983 112.826C385.092 114.425 384.626 116.009 383.671 117.295L379.917 122.389C379.321 123.196 378.554 123.86 377.67 124.333C376.785 124.806 375.807 125.075 374.806 125.121C373.805 125.168 372.806 124.99 371.882 124.601C370.958 124.212 370.132 123.622 369.465 122.874C369.448 122.855 369.431 122.835 369.413 122.816C369.305 122.973 369.197 123.129 369.087 123.282C368.462 124.161 367.637 124.877 366.68 125.372C365.723 125.867 364.661 126.127 363.584 126.129C362.688 126.131 361.801 125.953 360.975 125.606C360.149 125.258 359.402 124.748 358.776 124.106C357.514 122.852 356.174 121.677 354.766 120.59C354.664 120.513 354.565 120.433 354.469 120.349C353.589 120.213 352.745 119.903 351.985 119.438C351.152 120.834 350.239 122.182 349.252 123.475C348.664 124.243 347.919 124.876 347.066 125.331C346.212 125.785 345.271 126.051 344.306 126.11C343.342 126.169 342.375 126.019 341.473 125.672C340.571 125.324 339.754 124.787 339.078 124.096C337.718 125.025 336.168 125.637 334.54 125.885C332.704 126.232 330.837 126.391 328.969 126.358L328.246 126.353Z" fill="#15047C"/>
<path d="M388.03 124.346C386.243 124.344 384.53 123.633 383.266 122.368C382.003 121.103 381.292 119.389 381.29 117.6V110.781C381.292 108.993 382.003 107.278 383.266 106.013C384.53 104.749 386.243 104.037 388.03 104.035H388.424C387.996 103.133 387.774 102.147 387.775 101.148V94.5879C387.776 93.4542 388.062 92.3388 388.606 91.3447C389.151 90.3507 389.937 89.5101 390.893 88.9004C390.442 87.1397 389.808 84.8288 389.262 83.1695C388.768 81.6603 388.821 80.0249 389.411 78.5508C390.002 77.0767 391.094 75.8583 392.493 75.1098C391.653 74.4824 390.971 73.6675 390.501 72.7298C390.031 71.7921 389.787 70.7575 389.787 69.7085V69.5638H388.254C386.467 69.5619 384.754 68.8506 383.491 67.5859C382.227 66.3213 381.516 64.6066 381.514 62.818V48.5912C381.516 46.8026 382.227 45.0878 383.491 43.8232C384.754 42.5586 386.467 41.8473 388.254 41.8453H408.633C408.725 41.2879 408.888 40.7446 409.117 40.2283C409.496 39.3779 410.046 38.6149 410.733 37.9872C411.42 37.3594 412.229 36.8805 413.109 36.5803L419.674 34.357C421.227 33.8296 422.92 33.8882 424.433 34.5219C425.947 35.1555 427.177 36.3205 427.893 37.798C428.529 39.1109 429.138 40.4881 429.687 41.8453H451.17C452.957 41.8473 454.67 42.5586 455.933 43.8233C457.197 45.088 457.908 46.8027 457.909 48.5912V62.818C457.908 64.6065 457.197 66.3212 455.933 67.5858C454.67 68.8505 452.957 69.5618 451.17 69.5638H450.009V69.7085C450.009 70.6977 449.792 71.6748 449.372 72.5704C448.952 73.466 448.34 74.258 447.58 74.8901C449.084 76.5356 450.585 78.2826 451.859 79.9608C452.929 81.3784 453.4 83.1604 453.169 84.9222C452.937 86.6839 452.023 88.2839 450.623 89.3767L450.376 89.5679C451.082 90.1996 451.647 90.9732 452.033 91.8383C452.419 92.7034 452.619 93.6403 452.619 94.5879V101.148C452.62 102.147 452.398 103.134 451.969 104.037C453.733 104.072 455.413 104.798 456.649 106.059C457.885 107.32 458.578 109.015 458.581 110.781V117.6C458.579 119.389 457.868 121.103 456.604 122.368C455.341 123.633 453.628 124.344 451.841 124.346L388.03 124.346Z" fill="#15047C"/>
<path d="M79.6683 56.6953H73.3207C73.1747 56.6953 73.0302 56.7241 72.8953 56.78C72.7605 56.8359 72.6379 56.9178 72.5347 57.0212C72.4315 57.1245 72.3496 57.2471 72.2937 57.3821C72.2379 57.5171 72.2091 57.6618 72.2091 57.8079V108.032C72.2091 114.233 70.942 117.248 67.4392 118.971C63.8646 120.624 58.6446 120.849 51.5153 120.865C51.2625 120.867 51.0166 120.783 50.8183 120.626C50.6199 120.469 50.481 120.249 50.4246 120.003C49.7371 117.148 48.8188 114.354 47.6789 111.648C47.6061 111.476 47.5781 111.288 47.5978 111.101C47.6174 110.915 47.6839 110.737 47.7911 110.584C47.8983 110.43 48.0427 110.307 48.2107 110.224C48.3786 110.142 48.5647 110.104 48.7515 110.113C53.6238 110.34 58.9187 110.271 60.5078 110.271C62.2219 110.271 62.8928 109.669 62.8928 107.859V57.8079C62.8928 57.5128 62.7757 57.2298 62.5672 57.0212C62.3587 56.8125 62.076 56.6953 61.7812 56.6953H14.7405C14.5945 56.6953 14.45 56.6665 14.3151 56.6106C14.1802 56.5547 14.0577 56.4727 13.9545 56.3694C13.8513 56.2661 13.7694 56.1435 13.7135 56.0085C13.6577 55.8735 13.6289 55.7288 13.6289 55.5827V47.4715C13.6289 47.3254 13.6577 47.1807 13.7135 47.0457C13.7694 46.9107 13.8513 46.7881 13.9545 46.6848C14.0577 46.5814 14.1802 46.4995 14.3151 46.4436C14.45 46.3877 14.5945 46.3589 14.7405 46.3589H79.6683C79.8143 46.3589 79.9588 46.3877 80.0937 46.4436C80.2285 46.4995 80.3511 46.5814 80.4543 46.6848C80.5575 46.7881 80.6394 46.9107 80.6953 47.0457C80.7511 47.1807 80.7799 47.3254 80.7799 47.4715V55.5827C80.7799 55.7288 80.7511 55.8735 80.6952 56.0085C80.6394 56.1435 80.5575 56.2661 80.4543 56.3694C80.3511 56.4727 80.2285 56.5547 80.0937 56.6106C79.9588 56.6665 79.8143 56.6953 79.6683 56.6953V56.6953ZM29.131 100.79V105.11C29.131 105.257 29.1022 105.401 29.0464 105.536C28.9905 105.671 28.9086 105.794 28.8054 105.897C28.7022 106.001 28.5797 106.082 28.4448 106.138C28.3099 106.194 28.1654 106.223 28.0194 106.223H21.5972C21.4512 106.223 21.3066 106.194 21.1718 106.138C21.0369 106.082 20.9144 106.001 20.8112 105.897C20.7079 105.794 20.6261 105.671 20.5702 105.536C20.5143 105.401 20.4856 105.257 20.4856 105.11V67.4543C20.4856 67.3082 20.5143 67.1636 20.5702 67.0286C20.6261 66.8936 20.7079 66.7709 20.8112 66.6676C20.9144 66.5643 21.0369 66.4824 21.1718 66.4264C21.3066 66.3705 21.4512 66.3418 21.5972 66.3418H50.9744C51.1204 66.3418 51.2649 66.3705 51.3998 66.4264C51.5347 66.4824 51.6572 66.5643 51.7604 66.6676C51.8636 66.7709 51.9455 66.8936 52.0014 67.0286C52.0572 67.1636 52.086 67.3082 52.086 67.4543V98.5643C52.086 98.8594 51.9689 99.1424 51.7604 99.351C51.552 99.5597 51.2692 99.6769 50.9744 99.6769H30.2426C30.0966 99.6769 29.952 99.7057 29.8172 99.7616C29.6823 99.8175 29.5598 99.8995 29.4565 100.003C29.3533 100.106 29.2714 100.229 29.2156 100.364C29.1597 100.499 29.131 100.643 29.131 100.79V100.79ZM29.131 77.1881V88.7442C29.131 89.0393 29.2481 89.3222 29.4566 89.5309C29.665 89.7395 29.9477 89.8568 30.2426 89.8568H42.1802C42.3262 89.8568 42.4707 89.828 42.6056 89.7721C42.7404 89.7162 42.863 89.6342 42.9662 89.5309C43.0694 89.4276 43.1513 89.3049 43.2072 89.17C43.263 89.035 43.2918 88.8903 43.2918 88.7442V77.1881C43.2918 77.042 43.263 76.8974 43.2072 76.7624C43.1513 76.6274 43.0694 76.5047 42.9662 76.4014C42.863 76.2981 42.7404 76.2161 42.6056 76.1602C42.4707 76.1043 42.3262 76.0756 42.1802 76.0756H30.2426C29.9477 76.0756 29.665 76.1928 29.4566 76.4014C29.2481 76.6101 29.131 76.8931 29.131 77.1881Z" fill="#FFCB08"/>
<path d="M109.095 97.6383L109.888 104.639C109.917 104.892 109.859 105.147 109.723 105.362C109.588 105.576 109.382 105.738 109.141 105.819C102.677 107.988 95.7416 110.21 89.896 112.113C89.7442 112.162 89.5835 112.178 89.4249 112.159C89.2664 112.14 89.1137 112.088 88.9774 112.005C88.8411 111.921 88.7244 111.81 88.6352 111.677C88.5461 111.545 88.4866 111.394 88.4609 111.237L87.2035 103.708C87.1577 103.432 87.2174 103.149 87.3708 102.915C87.5242 102.681 87.7599 102.513 88.0312 102.445C89.7022 102.021 91.511 101.507 93.5201 100.941C93.7538 100.876 93.9602 100.737 94.1077 100.544C94.2552 100.351 94.3359 100.115 94.3375 99.8727C94.3375 96.5704 94.3375 84.4505 94.3375 80.7121C94.3373 80.5664 94.3084 80.4221 94.2524 80.2876C94.1964 80.153 94.1144 80.0309 94.0112 79.9282C93.9079 79.8255 93.7853 79.7442 93.6506 79.689C93.5158 79.6338 93.3715 79.6058 93.2259 79.6066H89.0398C88.745 79.6066 88.4623 79.4894 88.2538 79.2807C88.0453 79.0721 87.9282 78.7891 87.9282 78.494V71.3308C87.9282 71.0357 88.0453 70.7527 88.2538 70.5441C88.4623 70.3355 88.745 70.2182 89.0398 70.2182H93.2259C93.5207 70.2182 93.8035 70.101 94.0119 69.8924C94.2204 69.6837 94.3375 69.4007 94.3375 69.1056V56.1707C94.3375 55.8756 94.2204 55.5926 94.0119 55.384C93.8035 55.1753 93.5207 55.0581 93.2259 55.0581H88.5182C88.2234 55.0581 87.9407 54.9409 87.7322 54.7322C87.5238 54.5236 87.4066 54.2406 87.4066 53.9455V46.6096C87.4066 46.4635 87.4354 46.3188 87.4913 46.1839C87.5471 46.0489 87.629 45.9262 87.7322 45.8229C87.8354 45.7196 87.958 45.6376 88.0928 45.5817C88.2277 45.5258 88.3722 45.497 88.5182 45.497H108.281C108.427 45.497 108.572 45.5258 108.706 45.5817C108.841 45.6376 108.964 45.7196 109.067 45.8229C109.17 45.9262 109.252 46.0489 109.308 46.1839C109.364 46.3188 109.393 46.4635 109.393 46.6096V53.9455C109.393 54.2406 109.276 54.5236 109.067 54.7322C108.859 54.9409 108.576 55.0581 108.281 55.0581H103.424C103.129 55.0581 102.846 55.1753 102.638 55.384C102.43 55.5926 102.312 55.8756 102.312 56.1707V69.1056C102.312 69.4007 102.43 69.6837 102.638 69.8924C102.846 70.101 103.129 70.2182 103.424 70.2182H106.716C107.011 70.2182 107.293 70.3355 107.502 70.5441C107.71 70.7528 107.827 71.0357 107.827 71.3308V78.494C107.827 78.7891 107.71 79.0721 107.502 79.2807C107.293 79.4894 107.011 79.6066 106.716 79.6066H103.424C103.129 79.6066 102.847 79.7238 102.638 79.9324C102.43 80.1411 102.312 80.4241 102.312 80.7192V96.805C102.312 96.9782 102.353 97.1491 102.431 97.304C102.508 97.4589 102.621 97.5935 102.76 97.6971C102.899 97.8006 103.06 97.8703 103.23 97.9005C103.401 97.9307 103.576 97.9206 103.742 97.8711L107.673 96.6974C107.829 96.6509 107.993 96.6391 108.154 96.6629C108.314 96.6868 108.468 96.7456 108.604 96.8354C108.739 96.9251 108.854 97.0435 108.938 97.1822C109.023 97.3209 109.077 97.4766 109.095 97.6383V97.6383ZM136.654 80.6671C136.312 81.812 135.994 82.9008 135.682 83.9515C135.632 84.1171 135.622 84.292 135.652 84.4622C135.682 84.6324 135.751 84.7933 135.854 84.9319C135.957 85.0705 136.091 85.1831 136.245 85.2606C136.4 85.3382 136.57 85.3785 136.743 85.3784C140.546 85.3784 150.553 85.3784 153.898 85.3784C154.044 85.3785 154.188 85.4073 154.322 85.4634C154.457 85.5194 154.579 85.6014 154.682 85.7048C154.785 85.8081 154.866 85.9308 154.922 86.0657C154.977 86.2006 155.005 86.3451 155.005 86.4909V111.649C155.005 115.267 154.483 117.851 152.545 119.402C150.887 120.858 148.934 121.223 146.318 121.286C146.051 121.296 145.79 121.209 145.582 121.041C145.374 120.874 145.233 120.637 145.185 120.374C144.755 118.136 144.092 115.949 143.206 113.85C143.135 113.679 143.109 113.493 143.128 113.31C143.148 113.126 143.213 112.95 143.318 112.797C143.423 112.645 143.564 112.521 143.729 112.438C143.893 112.354 144.076 112.313 144.261 112.318C145.159 112.338 145.886 112.338 146.21 112.338C146.806 112.253 147.03 112.08 147.03 111.391V95.104C147.03 94.9578 147.001 94.8132 146.945 94.6782C146.889 94.5432 146.808 94.4205 146.704 94.3172C146.601 94.2139 146.479 94.132 146.344 94.0761C146.209 94.0201 146.064 93.9914 145.918 93.9914H143.595C143.3 93.9914 143.018 94.1086 142.809 94.3173C142.601 94.5259 142.484 94.8089 142.484 95.104V119.151C142.484 119.446 142.367 119.729 142.158 119.937C141.95 120.146 141.667 120.263 141.372 120.263H136.515C136.22 120.263 135.938 120.146 135.729 119.937C135.521 119.729 135.403 119.446 135.403 119.151V95.104C135.403 94.8089 135.286 94.5259 135.078 94.3172C134.869 94.1086 134.587 93.9914 134.292 93.9914H132.192C131.897 93.9914 131.615 94.1086 131.406 94.3172C131.198 94.5259 131.081 94.8089 131.081 95.104V119.151C131.081 119.297 131.052 119.441 130.996 119.576C130.94 119.711 130.858 119.834 130.755 119.937C130.652 120.041 130.529 120.123 130.394 120.179C130.259 120.234 130.115 120.263 129.969 120.263H125.112C124.817 120.263 124.534 120.146 124.326 119.937C124.117 119.729 124 119.446 124 119.151V95.104C124 94.9578 123.972 94.8132 123.916 94.6782C123.86 94.5432 123.778 94.4205 123.675 94.3172C123.572 94.2139 123.449 94.132 123.314 94.0761C123.179 94.0201 123.035 93.9914 122.889 93.9914H120.938C120.643 93.9914 120.361 94.1086 120.152 94.3172C119.944 94.5259 119.827 94.8089 119.827 95.104V119.926C119.827 120.221 119.71 120.504 119.501 120.713C119.293 120.921 119.01 121.039 118.715 121.039H112.964C112.818 121.039 112.673 121.01 112.538 120.954C112.404 120.898 112.281 120.816 112.178 120.713C112.075 120.609 111.993 120.487 111.937 120.352C111.881 120.217 111.852 120.072 111.852 119.926V86.4909C111.852 86.1959 111.969 85.9129 112.178 85.7042C112.386 85.4956 112.669 85.3783 112.964 85.3783H126.262C126.525 85.3786 126.78 85.2852 126.981 85.1147C127.182 84.9443 127.315 84.7079 127.358 84.4478C127.537 83.3628 127.715 82.2724 127.894 81.1586C127.92 80.9997 127.911 80.8371 127.869 80.682C127.826 80.5268 127.75 80.3828 127.646 80.2599C127.542 80.137 127.413 80.0381 127.267 79.97C127.121 79.902 126.963 79.8664 126.802 79.8657C123.414 79.8657 114.342 79.8657 111.174 79.8657C111.028 79.8657 110.884 79.8369 110.749 79.7809C110.614 79.725 110.492 79.643 110.389 79.5397C110.285 79.4364 110.204 79.3137 110.148 79.1788C110.092 79.0438 110.063 78.8992 110.064 78.7531V71.7616C110.064 71.6155 110.092 71.4709 110.148 71.3359C110.204 71.2009 110.286 71.0782 110.389 70.9749C110.492 70.8716 110.615 70.7897 110.75 70.7337C110.885 70.6778 111.029 70.649 111.175 70.649H154.787C154.933 70.649 155.078 70.6778 155.213 70.7337C155.348 70.7897 155.47 70.8716 155.573 70.9749C155.677 71.0782 155.758 71.2009 155.814 71.3359C155.87 71.4709 155.899 71.6155 155.899 71.7616V78.7531C155.899 78.899 155.871 79.0436 155.815 79.1785C155.76 79.3135 155.678 79.4361 155.575 79.5395C155.472 79.6428 155.35 79.7248 155.215 79.7808C155.08 79.8368 154.936 79.8656 154.79 79.8656C151.327 79.8656 140.762 79.8656 137.721 79.8656C137.481 79.8671 137.248 79.9458 137.055 80.0901C136.863 80.2344 136.723 80.4367 136.654 80.6671V80.6671ZM152.328 66.1698H114.007C113.861 66.1698 113.716 66.1411 113.582 66.0852C113.447 66.0292 113.324 65.9473 113.221 65.844C113.118 65.7407 113.036 65.618 112.98 65.483C112.924 65.348 112.895 65.2033 112.895 65.0572V45.3181C112.895 45.172 112.924 45.0273 112.98 44.8923C113.036 44.7573 113.118 44.6346 113.221 44.5313C113.324 44.428 113.447 44.3461 113.582 44.2902C113.716 44.2342 113.861 44.2055 114.007 44.2055H119.759C119.905 44.2055 120.049 44.2342 120.184 44.2902C120.319 44.3461 120.442 44.428 120.545 44.5313C120.648 44.6347 120.73 44.7573 120.786 44.8923C120.842 45.0273 120.87 45.172 120.87 45.3181V56.0988C120.87 56.3938 120.988 56.6768 121.196 56.8855C121.404 57.0941 121.687 57.2114 121.982 57.2114H127.584C127.879 57.2114 128.162 57.0941 128.37 56.8855C128.579 56.6768 128.696 56.3938 128.696 56.0988V41.7005C128.696 41.4054 128.813 41.1224 129.021 40.9138C129.23 40.7051 129.512 40.5879 129.807 40.5879H135.782C136.077 40.5879 136.36 40.7051 136.568 40.9138C136.777 41.1224 136.894 41.4054 136.894 41.7005V56.0988C136.894 56.3939 137.011 56.6768 137.22 56.8855C137.428 57.0942 137.711 57.2114 138.006 57.2114H143.98C144.275 57.2114 144.558 57.0941 144.766 56.8855C144.975 56.6768 145.092 56.3939 145.092 56.0988V45.3181C145.092 45.172 145.121 45.0273 145.177 44.8923C145.233 44.7573 145.314 44.6347 145.418 44.5314C145.521 44.428 145.643 44.3461 145.778 44.2902C145.913 44.2343 146.058 44.2055 146.204 44.2055H152.328C152.474 44.2055 152.618 44.2343 152.753 44.2902C152.888 44.3461 153.011 44.428 153.114 44.5314C153.217 44.6347 153.299 44.7573 153.355 44.8923C153.411 45.0273 153.439 45.172 153.439 45.3181V65.0572C153.439 65.2033 153.411 65.348 153.355 65.483C153.299 65.618 153.217 65.7406 153.114 65.844C153.011 65.9473 152.888 66.0292 152.753 66.0851C152.618 66.1411 152.474 66.1698 152.328 66.1698V66.1698Z" fill="#FFCB08"/>
<path d="M188.703 92.0164L183.219 93.6668C182.99 93.7356 182.789 93.8765 182.647 94.0684C182.504 94.2603 182.427 94.4931 182.427 94.7322V119.926C182.427 120.072 182.398 120.217 182.342 120.352C182.287 120.487 182.205 120.609 182.101 120.713C181.998 120.816 181.876 120.898 181.741 120.954C181.606 121.01 181.461 121.039 181.315 121.039H175.117C174.822 121.039 174.539 120.921 174.331 120.713C174.122 120.504 174.005 120.221 174.005 119.926V97.809C174.005 97.6358 173.965 97.465 173.887 97.3101C173.81 97.1553 173.697 97.0207 173.558 96.9172C173.419 96.8136 173.258 96.7439 173.088 96.7136C172.918 96.6833 172.743 96.6932 172.577 96.7426L165.327 98.9008C165.179 98.9447 165.024 98.9575 164.872 98.9383C164.719 98.9192 164.572 98.8685 164.44 98.7895C164.308 98.7105 164.193 98.6049 164.104 98.4795C164.015 98.354 163.953 98.2113 163.921 98.0605L162.23 89.9056C162.171 89.6182 162.227 89.3188 162.387 89.0728C162.547 88.8267 162.798 88.6539 163.084 88.5921C165.967 87.9633 169.461 87.123 173.142 86.2673C173.387 86.2115 173.605 86.0744 173.762 85.8783C173.919 85.6822 174.004 85.4387 174.005 85.1876C174.005 82.0862 174.005 71.6641 174.005 68.227C174.005 68.081 173.976 67.9364 173.92 67.8016C173.864 67.6668 173.782 67.5444 173.679 67.4413C173.576 67.3382 173.453 67.2565 173.319 67.2008C173.184 67.1452 173.039 67.1167 172.894 67.117H170.613C170.352 67.1177 170.1 67.2102 169.9 67.3783C169.7 67.5464 169.566 67.7795 169.52 68.0367C168.985 71.1685 168.276 74.2682 167.398 77.3214C167.353 77.4752 167.275 77.6175 167.169 77.7383C167.064 77.8591 166.934 77.9556 166.787 78.0212C166.641 78.0868 166.482 78.1199 166.322 78.1182C166.162 78.1165 166.004 78.08 165.859 78.0114C164.602 77.4157 162.976 76.7027 161.708 76.1927C161.448 76.0867 161.237 75.8854 161.12 75.6297C161.002 75.3741 160.986 75.0832 161.075 74.8163C163.229 68.0948 164.467 58.1014 165.129 48.4566C165.139 48.3008 165.183 48.149 165.256 48.011C165.329 47.8731 165.43 47.7521 165.553 47.6561C165.676 47.56 165.818 47.491 165.969 47.4536C166.121 47.4162 166.278 47.4112 166.432 47.439L170.923 48.2467C171.196 48.2967 171.441 48.4461 171.611 48.6662C171.78 48.8863 171.862 49.1614 171.84 49.4384C171.66 51.685 171.438 53.894 171.174 56.1381C171.155 56.2939 171.17 56.4519 171.216 56.6018C171.263 56.7517 171.34 56.8901 171.444 57.0078C171.548 57.1255 171.675 57.2198 171.818 57.2847C171.961 57.3495 172.116 57.3834 172.272 57.384H172.894C173.188 57.384 173.471 57.2668 173.68 57.0582C173.888 56.8495 174.005 56.5665 174.005 56.2714V41.7859C174.005 41.6398 174.034 41.4951 174.09 41.3602C174.146 41.2252 174.227 41.1025 174.331 40.9992C174.434 40.8959 174.556 40.8139 174.691 40.758C174.826 40.7021 174.971 40.6733 175.117 40.6733H181.315C181.461 40.6733 181.606 40.7021 181.741 40.758C181.876 40.8139 181.998 40.8959 182.101 40.9992C182.205 41.1025 182.287 41.2252 182.342 41.3602C182.398 41.4951 182.427 41.6398 182.427 41.7859V56.2715C182.427 56.4176 182.456 56.5623 182.512 56.6973C182.568 56.8323 182.649 56.9549 182.753 57.0582C182.856 57.1615 182.978 57.2435 183.113 57.2994C183.248 57.3553 183.393 57.3841 183.539 57.3841H187.725C188.02 57.3841 188.302 57.5013 188.511 57.71C188.719 57.9186 188.836 58.2016 188.836 58.4967V66.0043C188.836 66.1504 188.808 66.2951 188.752 66.4301C188.696 66.5651 188.614 66.6877 188.511 66.791C188.408 66.8943 188.285 66.9763 188.15 67.0322C188.015 67.0881 187.871 67.1169 187.725 67.1169H183.539C183.244 67.1169 182.961 67.2341 182.753 67.4428C182.544 67.6514 182.427 67.9344 182.427 68.2295V82.4691C182.427 82.6394 182.466 82.8075 182.541 82.9603C182.616 83.1132 182.726 83.2467 182.86 83.3506C182.995 83.4545 183.152 83.5261 183.319 83.5597C183.486 83.5934 183.658 83.5882 183.823 83.5447L187.355 82.6098C187.511 82.5687 187.673 82.5618 187.831 82.5895C187.989 82.6173 188.14 82.679 188.272 82.7704C188.404 82.8619 188.515 82.9809 188.596 83.1193C188.678 83.2577 188.729 83.4122 188.745 83.5721L189.488 90.8376C189.515 91.0948 189.451 91.3533 189.307 91.5684C189.164 91.7835 188.95 91.9419 188.703 92.0164V92.0164ZM229.164 91.58H224.232C223.937 91.58 223.654 91.6972 223.446 91.9059C223.237 92.1145 223.12 92.3975 223.12 92.6926V109.582C223.12 114.664 222.3 117.335 219.319 118.971C216.658 120.428 212.812 120.744 207.843 120.776C207.579 120.779 207.324 120.688 207.121 120.519C206.919 120.35 206.784 120.114 206.739 119.854C206.275 117.242 205.608 114.67 204.745 112.161C204.686 111.991 204.669 111.808 204.696 111.63C204.723 111.451 204.794 111.281 204.901 111.136C205.008 110.99 205.149 110.873 205.311 110.794C205.473 110.716 205.653 110.678 205.833 110.684C208.865 110.788 211.901 110.788 212.91 110.788C214.027 110.788 214.326 110.443 214.326 109.323V92.6925C214.326 92.3975 214.209 92.1145 214.001 91.9058C213.792 91.6972 213.509 91.5799 213.214 91.5799H191.737C191.442 91.5799 191.159 91.4627 190.951 91.2541C190.742 91.0454 190.625 90.7624 190.625 90.4674V83.3033C190.625 83.1572 190.654 83.0125 190.71 82.8775C190.766 82.7425 190.847 82.6199 190.951 82.5165C191.054 82.4132 191.176 82.3313 191.311 82.2754C191.446 82.2195 191.591 82.1907 191.737 82.1907H213.214C213.509 82.1907 213.792 82.0735 214.001 81.8648C214.209 81.6562 214.326 81.3732 214.326 81.0781V77.2743C214.326 76.9793 214.443 76.6963 214.652 76.4876C214.86 76.279 215.143 76.1618 215.438 76.1618H222.009C222.304 76.1618 222.586 76.279 222.795 76.4876C223.003 76.6963 223.12 76.9793 223.12 77.2743V81.0781C223.12 81.3732 223.237 81.6562 223.446 81.8648C223.654 82.0735 223.937 82.1907 224.232 82.1907H229.164C229.458 82.1907 229.741 82.3079 229.95 82.5165C230.158 82.7252 230.275 83.0082 230.275 83.3033V90.4674C230.275 90.7625 230.158 91.0455 229.95 91.2541C229.741 91.4628 229.458 91.58 229.164 91.58V91.58ZM203.823 57.5558H192.035C191.74 57.5558 191.458 57.4386 191.249 57.23C191.041 57.0213 190.924 56.7383 190.924 56.4433V49.3665C190.924 49.0714 191.041 48.7884 191.249 48.5797C191.458 48.3711 191.74 48.2539 192.035 48.2539H203.823C204.118 48.2539 204.401 48.1366 204.609 47.928C204.818 47.7193 204.935 47.4364 204.935 47.1413V41.7005C204.935 41.4054 205.052 41.1224 205.26 40.9138C205.469 40.7051 205.751 40.5879 206.046 40.5879H212.617C212.912 40.5879 213.195 40.7051 213.403 40.9138C213.612 41.1224 213.729 41.4054 213.729 41.7005V47.1412C213.729 47.4363 213.846 47.7193 214.054 47.928C214.263 48.1366 214.546 48.2538 214.84 48.2538H227.524C227.819 48.2538 228.102 48.371 228.31 48.5797C228.519 48.7884 228.636 49.0713 228.636 49.3664V56.4432C228.636 56.7383 228.519 57.0213 228.31 57.2299C228.102 57.4386 227.819 57.5558 227.524 57.5558H214.84C214.546 57.5558 214.263 57.673 214.054 57.8817C213.846 58.0903 213.729 58.3733 213.729 58.6684V63.7647C213.729 64.0598 213.846 64.3427 214.054 64.5514C214.263 64.7601 214.546 64.8773 214.84 64.8773H224.99C225.285 64.8773 225.567 64.9945 225.776 65.2031C225.984 65.4118 226.101 65.6948 226.101 65.9899V73.2404C226.101 73.5354 225.984 73.8184 225.776 74.0271C225.567 74.2357 225.285 74.3529 224.99 74.3529H194.792C194.498 74.3529 194.215 74.2357 194.006 74.0271C193.798 73.8184 193.681 73.5354 193.681 73.2404V65.9899C193.681 65.6948 193.798 65.4118 194.006 65.2032C194.215 64.9945 194.498 64.8773 194.792 64.8773H203.823C204.118 64.8773 204.401 64.7601 204.609 64.5514C204.818 64.3428 204.935 64.0598 204.935 63.7647V58.6684C204.935 58.3734 204.818 58.0904 204.609 57.8817C204.401 57.6731 204.118 57.5558 203.823 57.5558V57.5558ZM201.268 92.6251C204.197 96.1543 206.821 99.9267 209.111 103.901C209.239 104.136 209.278 104.41 209.221 104.671C209.164 104.933 209.015 105.165 208.8 105.325L203.643 109.193C203.513 109.291 203.363 109.36 203.203 109.393C203.043 109.426 202.878 109.424 202.72 109.386C202.561 109.348 202.413 109.275 202.285 109.173C202.158 109.071 202.055 108.942 201.983 108.795C199.89 104.804 197.471 100.993 194.75 97.4016C194.66 97.2833 194.594 97.1481 194.557 97.004C194.521 96.8598 194.513 96.7097 194.535 96.5627C194.558 96.4156 194.61 96.2745 194.688 96.1479C194.766 96.0213 194.868 95.9117 194.99 95.8257C196.27 94.9177 198.548 93.3017 199.775 92.4318C200.002 92.2688 200.282 92.1981 200.559 92.234C200.836 92.2698 201.089 92.4096 201.268 92.6251H201.268Z" fill="#FFCB08"/>
<path d="M304.798 65.9047V71.001C304.798 71.296 304.681 71.579 304.472 71.7877C304.264 71.9963 303.981 72.1136 303.686 72.1136H292.326C292.048 72.1136 291.78 72.2177 291.575 72.4054C291.37 72.5931 291.243 72.8507 291.218 73.1277L290.802 77.8173C290.778 78.0943 290.65 78.352 290.445 78.5397C290.241 78.7273 289.973 78.8314 289.695 78.8314H249.1C248.944 78.8314 248.789 78.7985 248.647 78.7346C248.504 78.6708 248.376 78.5775 248.272 78.4609C248.168 78.3444 248.089 78.2071 248.042 78.0581C247.994 77.9091 247.978 77.7517 247.995 77.5962L248.466 73.3488C248.483 73.1933 248.468 73.0359 248.42 72.8869C248.372 72.7379 248.294 72.6007 248.19 72.4841C248.085 72.3675 247.958 72.2743 247.815 72.2104C247.672 72.1466 247.518 72.1136 247.361 72.1136H238.014C237.719 72.1136 237.436 71.9964 237.228 71.7877C237.019 71.5791 236.902 71.2961 236.902 71.001V65.9047C236.902 65.6096 237.019 65.3266 237.228 65.118C237.436 64.9093 237.719 64.7921 238.014 64.7921H248.505C248.778 64.7921 249.042 64.6915 249.245 64.5096C249.449 64.3276 249.579 64.077 249.61 63.8055L250.131 59.2316C250.161 58.9601 250.291 58.7095 250.495 58.5275C250.699 58.3456 250.962 58.245 251.235 58.245H291.223C291.376 58.245 291.528 58.2768 291.668 58.3384C291.809 58.3999 291.935 58.49 292.039 58.6028C292.143 58.7156 292.223 58.8488 292.273 58.9939C292.323 59.139 292.343 59.2929 292.331 59.446L292 63.5911C291.988 63.7441 292.008 63.8981 292.058 64.0432C292.108 64.1883 292.188 64.3215 292.292 64.4343C292.396 64.5471 292.522 64.6372 292.663 64.6987C292.803 64.7603 292.955 64.7921 293.109 64.7921H303.686C303.981 64.7921 304.264 64.9093 304.472 65.118C304.681 65.3266 304.798 65.6096 304.798 65.9047V65.9047ZM291.673 111.407C295.078 112.538 298.264 113.642 300.893 114.596C301.066 114.658 301.222 114.763 301.344 114.902C301.467 115.04 301.553 115.206 301.595 115.386C301.637 115.566 301.633 115.754 301.583 115.932C301.534 116.11 301.441 116.273 301.312 116.406L296.982 120.915C296.827 121.078 296.626 121.189 296.405 121.234C296.185 121.279 295.956 121.256 295.749 121.166C290.684 118.998 283.038 115.995 275.342 113.589C275.17 113.536 275.013 113.442 274.886 113.315C274.758 113.187 274.663 113.031 274.61 112.858C274.556 112.686 274.545 112.503 274.578 112.326C274.611 112.149 274.686 111.982 274.798 111.84L275.429 111.04C275.558 110.876 275.639 110.679 275.661 110.471C275.684 110.263 275.648 110.053 275.557 109.865C275.465 109.677 275.323 109.519 275.146 109.408C274.97 109.297 274.765 109.238 274.556 109.238H266.244C266.016 109.238 265.794 109.308 265.607 109.439C265.421 109.569 265.279 109.754 265.2 109.968C265.122 110.182 265.111 110.415 265.169 110.635C265.227 110.855 265.352 111.052 265.526 111.2L266.457 111.989C266.596 112.106 266.704 112.255 266.772 112.424C266.84 112.592 266.866 112.775 266.847 112.956C266.828 113.136 266.766 113.31 266.665 113.461C266.564 113.612 266.427 113.736 266.267 113.822C258.95 117.437 251.158 119.994 243.123 121.419C242.898 121.459 242.667 121.429 242.46 121.332C242.254 121.235 242.083 121.076 241.971 120.877C240.995 119.2 239.926 117.579 238.771 116.021C238.658 115.869 238.587 115.692 238.562 115.505C238.538 115.319 238.561 115.129 238.631 114.954C238.7 114.779 238.813 114.624 238.958 114.505C239.104 114.386 239.278 114.306 239.463 114.273C243.456 113.561 247.402 112.607 251.278 111.414C251.532 111.333 251.748 111.165 251.888 110.939C252.028 110.712 252.082 110.443 252.041 110.181C252 109.918 251.867 109.678 251.664 109.505C251.462 109.332 251.205 109.238 250.939 109.238H248.136C247.085 109.238 246.591 108.74 246.591 108.125V82.4427C246.591 82.2966 246.62 82.1519 246.676 82.017C246.732 81.882 246.814 81.7593 246.917 81.656C247.02 81.5527 247.143 81.4707 247.278 81.4148C247.412 81.3589 247.557 81.3301 247.703 81.3301H294.072C294.367 81.3301 294.65 81.4474 294.858 81.656C295.066 81.8647 295.184 82.1477 295.184 82.4427V108.125C295.184 108.421 295.066 108.704 294.858 108.912C294.65 109.121 294.367 109.238 294.072 109.238H292.018C291.754 109.239 291.499 109.333 291.298 109.505C291.097 109.677 290.964 109.915 290.923 110.176C290.881 110.437 290.934 110.704 291.072 110.93C291.209 111.155 291.422 111.325 291.673 111.407V111.407ZM245.852 62.5525H240.101C239.806 62.5525 239.524 62.4353 239.315 62.2266C239.107 62.018 238.99 61.735 238.99 61.4399V48.6776C238.99 48.3825 239.107 48.0996 239.315 47.8909C239.524 47.6823 239.806 47.565 240.101 47.565H264.605C264.786 47.5652 264.964 47.5214 265.124 47.4374C265.284 47.3533 265.421 47.2315 265.523 47.0825C265.626 46.9335 265.69 46.7618 265.712 46.5823C265.733 46.4027 265.71 46.2206 265.645 46.0518C265.307 45.1837 264.935 44.3327 264.564 43.5286C264.499 43.386 264.464 43.2311 264.463 43.0741C264.461 42.9171 264.493 42.7617 264.557 42.618C264.62 42.4743 264.713 42.3458 264.83 42.2408C264.946 42.1359 265.084 42.057 265.233 42.0093L270.9 40.1825C271.148 40.1017 271.416 40.1109 271.657 40.2086C271.898 40.3062 272.098 40.4861 272.219 40.7163C273.266 42.6876 274.18 44.7269 274.954 46.8204C275.03 47.0376 275.172 47.2259 275.359 47.3593C275.546 47.4927 275.77 47.5646 276 47.5651H301.301C301.596 47.5651 301.879 47.6823 302.087 47.891C302.296 48.0996 302.413 48.3826 302.413 48.6777V61.4399C302.413 61.735 302.296 62.018 302.087 62.2266C301.879 62.4353 301.596 62.5525 301.301 62.5525H295.252C295.106 62.5525 294.961 62.5237 294.827 62.4678C294.692 62.4119 294.569 62.3299 294.466 62.2266C294.363 62.1233 294.281 62.0006 294.225 61.8657C294.169 61.7307 294.14 61.586 294.14 61.4399V56.6017C294.14 56.3066 294.023 56.0237 293.815 55.815C293.606 55.6064 293.324 55.4891 293.029 55.4891H248.075C247.78 55.4891 247.498 55.6064 247.289 55.815C247.081 56.0237 246.964 56.3066 246.964 56.6017V61.4399C246.964 61.735 246.847 62.018 246.638 62.2266C246.43 62.4353 246.147 62.5525 245.852 62.5525V62.5525ZM256.274 88.9961H285.055C285.35 88.9961 285.632 88.8789 285.841 88.6702C286.049 88.4616 286.166 88.1786 286.166 87.8835V87.6109C286.166 87.3159 286.049 87.0329 285.841 86.8242C285.632 86.6156 285.35 86.4983 285.055 86.4983H256.274C256.128 86.4983 255.983 86.5271 255.848 86.583C255.713 86.639 255.591 86.7209 255.488 86.8242C255.384 86.9275 255.303 87.0502 255.247 87.1852C255.191 87.3202 255.162 87.4648 255.162 87.6109V87.8835C255.162 88.0296 255.191 88.1743 255.247 88.3093C255.303 88.4442 255.384 88.5669 255.488 88.6702C255.591 88.7735 255.713 88.8555 255.848 88.9114C255.983 88.9673 256.128 88.9961 256.274 88.9961V88.9961ZM256.274 96.5757H285.055C285.35 96.5757 285.632 96.4584 285.841 96.2498C286.049 96.0411 286.166 95.7581 286.166 95.4631V95.0178C286.166 94.7227 286.049 94.4397 285.841 94.2311C285.632 94.0224 285.35 93.9052 285.055 93.9052H256.274C255.979 93.9052 255.696 94.0224 255.488 94.2311C255.279 94.4397 255.162 94.7227 255.162 95.0178V95.4631C255.162 95.7581 255.279 96.0411 255.488 96.2498C255.696 96.4584 255.979 96.5757 256.274 96.5757V96.5757ZM256.274 104.156H285.055C285.35 104.156 285.632 104.039 285.841 103.83C286.049 103.622 286.166 103.339 286.166 103.044V102.512C286.166 102.217 286.049 101.934 285.841 101.725C285.632 101.517 285.35 101.399 285.055 101.399H256.274C255.979 101.399 255.696 101.517 255.488 101.725C255.279 101.934 255.162 102.217 255.162 102.512V103.044C255.162 103.19 255.191 103.334 255.247 103.469C255.303 103.604 255.384 103.727 255.488 103.83C255.591 103.934 255.713 104.016 255.848 104.071C255.983 104.127 256.128 104.156 256.274 104.156ZM257.593 73.7496H265.146C265.415 73.7496 265.675 73.652 265.877 73.4748C266.08 73.2976 266.211 73.0529 266.247 72.7861L266.319 72.2554C266.34 72.0981 266.328 71.9381 266.282 71.7862C266.237 71.6342 266.159 71.4937 266.055 71.3742C265.95 71.2547 265.822 71.1589 265.677 71.0933C265.533 71.0277 265.376 70.9937 265.218 70.9937H257.65C257.376 70.9937 257.112 71.0951 256.908 71.2784C256.704 71.4617 256.574 71.714 256.545 71.9868L256.488 72.5174C256.471 72.6727 256.487 72.8298 256.535 72.9785C256.583 73.1271 256.661 73.264 256.766 73.3803C256.87 73.4965 256.997 73.5895 257.14 73.6531C257.282 73.7167 257.437 73.7496 257.593 73.7496V73.7496ZM257.355 64.3936L257.323 64.6672C257.304 64.8233 257.319 64.9817 257.365 65.1317C257.412 65.2818 257.491 65.4202 257.595 65.5378C257.699 65.6555 257.827 65.7496 257.971 65.8141C258.114 65.8786 258.269 65.9119 258.426 65.9119H265.921C266.198 65.9119 266.466 65.8079 266.671 65.6203C266.876 65.4327 267.003 65.1751 267.028 64.8983L267.052 64.6248C267.066 64.4709 267.048 64.3159 266.998 64.1696C266.949 64.0233 266.87 63.8888 266.765 63.7749C266.661 63.6609 266.535 63.5699 266.393 63.5076C266.252 63.4454 266.1 63.4132 265.945 63.4132H258.459C258.187 63.4132 257.925 63.513 257.721 63.6937C257.518 63.8743 257.388 64.1234 257.355 64.3936V64.3936ZM283.119 72.7268L283.162 72.1962C283.174 72.043 283.154 71.8889 283.104 71.7436C283.054 71.5983 282.975 71.465 282.871 71.3521C282.767 71.2391 282.64 71.1489 282.5 71.0873C282.359 71.0256 282.207 70.9938 282.054 70.9938H274.717C274.443 70.9938 274.178 71.0951 273.974 71.2784C273.77 71.4617 273.641 71.714 273.612 71.9868L273.555 72.5175C273.538 72.6727 273.554 72.8298 273.602 72.9785C273.65 73.1271 273.728 73.264 273.833 73.3803C273.937 73.4965 274.064 73.5895 274.207 73.6531C274.349 73.7167 274.504 73.7496 274.66 73.7496H282.011C282.29 73.7496 282.559 73.6444 282.764 73.4549C282.97 73.2653 283.096 73.0054 283.119 72.7268V72.7268ZM282.601 63.4132H275.437C275.154 63.4132 274.881 63.5216 274.675 63.7161C274.469 63.9106 274.345 64.1767 274.328 64.4598L274.312 64.7333C274.303 64.8847 274.325 65.0364 274.376 65.1789C274.428 65.3215 274.508 65.452 274.612 65.5624C274.716 65.6727 274.842 65.7607 274.981 65.8208C275.12 65.8809 275.27 65.9119 275.421 65.9119H282.585C282.868 65.9119 283.141 65.8036 283.347 65.6092C283.553 65.4148 283.678 65.1488 283.695 64.8658L283.711 64.5922C283.72 64.4408 283.698 64.2891 283.646 64.1465C283.595 64.0039 283.514 63.8733 283.41 63.7629C283.307 63.6525 283.181 63.5645 283.042 63.5044C282.903 63.4442 282.753 63.4132 282.601 63.4132V63.4132Z" fill="#FFCB08"/>
<path d="M310.194 112.328C311.44 107.001 312.327 101.595 312.848 96.148C312.866 95.9769 312.924 95.8123 313.016 95.6673C313.109 95.5223 313.234 95.4008 313.381 95.3125C313.529 95.2241 313.695 95.1714 313.866 95.1584C314.038 95.1454 314.21 95.1725 314.369 95.2375L316.695 96.1783C316.916 96.2662 317.104 96.4237 317.228 96.6272C317.353 96.8307 317.409 97.0691 317.386 97.3068C316.909 102.887 316.116 108.435 315.012 113.925C314.977 114.082 314.908 114.229 314.81 114.356C314.713 114.483 314.589 114.588 314.447 114.663C314.305 114.737 314.149 114.78 313.989 114.788C313.828 114.797 313.669 114.77 313.52 114.71L310.854 113.651C310.601 113.549 310.395 113.359 310.273 113.115C310.152 112.871 310.124 112.591 310.194 112.328V112.328ZM354.28 97.066C353.938 98.6869 353.558 100.3 353.137 101.874C353.08 102.089 353.089 102.317 353.163 102.527C353.238 102.737 353.374 102.919 353.555 103.049C355.671 104.58 357.629 106.318 359.399 108.239C359.56 108.422 359.656 108.653 359.673 108.896C359.691 109.139 359.628 109.381 359.494 109.585L356.429 114.288C356.337 114.43 356.213 114.549 356.068 114.636C355.923 114.724 355.759 114.776 355.591 114.79C355.422 114.804 355.252 114.78 355.094 114.718C354.936 114.656 354.795 114.558 354.681 114.433C353.788 113.443 352.673 112.314 351.486 111.219C351.355 111.101 351.198 111.015 351.028 110.969C350.858 110.923 350.679 110.918 350.506 110.955C350.334 110.992 350.172 111.07 350.036 111.181C349.899 111.293 349.791 111.436 349.72 111.598C348.408 114.594 346.753 117.428 344.788 120.043C344.69 120.174 344.563 120.282 344.418 120.359C344.274 120.436 344.114 120.48 343.95 120.488C343.786 120.496 343.622 120.467 343.471 120.405C343.319 120.342 343.183 120.247 343.072 120.126C342.105 119.068 340.766 117.784 339.58 116.712C339.452 116.597 339.298 116.513 339.131 116.468C338.965 116.422 338.79 116.417 338.621 116.451C338.451 116.485 338.293 116.559 338.157 116.665C338.021 116.772 337.912 116.909 337.838 117.065C337.766 117.219 337.681 117.366 337.586 117.506C337.194 118.285 336.613 118.953 335.897 119.449C335.181 119.946 334.352 120.255 333.487 120.349C331.786 120.662 330.056 120.786 328.328 120.72C328.056 120.718 327.794 120.615 327.592 120.431C327.391 120.248 327.264 119.996 327.237 119.725C327.057 118.029 326.704 116.355 326.185 114.73C326.131 114.557 326.12 114.373 326.153 114.195C326.186 114.016 326.263 113.849 326.376 113.707C326.489 113.565 326.636 113.454 326.802 113.382C326.969 113.31 327.15 113.28 327.331 113.295C328.402 113.372 329.263 113.372 329.76 113.372C330.131 113.431 330.51 113.371 330.845 113.201C331.18 113.031 331.452 112.759 331.623 112.424C332.013 111.674 332.289 110.01 332.551 106.636C332.564 106.467 332.533 106.298 332.462 106.144C332.39 105.991 332.281 105.859 332.143 105.76C332.006 105.661 331.846 105.599 331.678 105.581C331.51 105.562 331.34 105.587 331.184 105.653L331.181 105.654C331.048 105.712 330.904 105.74 330.759 105.735C330.614 105.73 330.471 105.693 330.343 105.626C330.214 105.559 330.101 105.464 330.014 105.349C329.926 105.233 329.865 105.099 329.836 104.956C329.283 102.273 328.302 98.8785 327.398 96.0246C327.311 95.7541 327.332 95.4609 327.454 95.2049C327.577 94.9489 327.793 94.7494 328.057 94.6474L329.14 94.2305C329.28 94.1768 329.428 94.1517 329.577 94.1567C329.726 94.1617 329.873 94.1967 330.008 94.2596C330.144 94.3225 330.265 94.4121 330.365 94.5229C330.465 94.6338 330.541 94.7636 330.59 94.9047C330.693 95.2011 330.797 95.5032 330.901 95.8109C330.983 96.0587 331.149 96.2699 331.37 96.4074C331.592 96.545 331.854 96.6002 332.113 96.5635C332.371 96.5267 332.608 96.4002 332.782 96.2062C332.956 96.0122 333.057 95.7631 333.066 95.5024C333.092 94.7019 333.119 93.8664 333.148 92.9959C333.154 92.8465 333.129 92.6974 333.076 92.5576C333.023 92.4178 332.943 92.2901 332.839 92.1821C332.736 92.0741 332.612 91.9879 332.474 91.9288C332.337 91.8698 332.189 91.8389 332.04 91.8381H314.843C314.698 91.838 314.553 91.8091 314.419 91.7531C314.284 91.6971 314.162 91.6151 314.059 91.5117C313.956 91.4084 313.875 91.2857 313.819 91.1508C313.764 91.0159 313.736 90.8713 313.736 90.7255V44.9735C313.736 44.6784 313.853 44.3954 314.062 44.1868C314.27 43.9781 314.553 43.8609 314.848 43.8609H338.412C338.707 43.8609 338.989 43.9781 339.198 44.1868C339.406 44.3954 339.523 44.6784 339.523 44.9735V51.1033C339.523 51.3983 339.406 51.6813 339.198 51.89C338.989 52.0986 338.707 52.2158 338.412 52.2158H333.033C332.739 52.2158 332.456 52.3331 332.247 52.5417C332.039 52.7504 331.922 53.0334 331.922 53.3284V56.7877C331.922 57.0828 332.039 57.3658 332.247 57.5744C332.456 57.7831 332.739 57.9003 333.033 57.9003H337.219C337.514 57.9003 337.797 58.0175 338.005 58.2261C338.214 58.4348 338.331 58.7178 338.331 59.0129V59.8818C345.968 54.901 352.34 48.2073 356.942 40.3318C357.072 40.0942 357.284 39.9127 357.539 39.8215C357.794 39.7303 358.073 39.7357 358.325 39.8368L364.175 42.1968C364.322 42.2567 364.455 42.3472 364.564 42.4623C364.673 42.5774 364.757 42.7144 364.809 42.8643C364.861 43.0142 364.881 43.1735 364.867 43.3317C364.853 43.4898 364.806 43.6432 364.728 43.7816C364.579 44.0503 364.425 44.3144 364.27 44.5763C364.141 44.7891 364.087 45.0393 364.116 45.2866C364.146 45.5339 364.258 45.764 364.434 45.94C368.86 50.2247 373.935 53.782 379.471 56.4802C379.604 56.5414 379.723 56.6283 379.823 56.7359C379.922 56.8435 379.999 56.9696 380.05 57.1071C380.1 57.2446 380.123 57.3908 380.117 57.5371C380.11 57.6834 380.075 57.8271 380.014 57.9599C379.024 60.2119 378.21 62.5372 377.578 64.9149C377.533 65.0827 377.449 65.2375 377.333 65.367C377.218 65.4965 377.073 65.597 376.911 65.6605C376.75 65.7239 376.575 65.7485 376.403 65.7324C376.23 65.7162 376.063 65.6597 375.916 65.5674C374.636 64.7826 373.357 63.902 372.077 62.9551C371.912 62.8322 371.716 62.7576 371.511 62.7396C371.306 62.7216 371.1 62.7609 370.916 62.8532C370.732 62.9455 370.578 63.0871 370.47 63.2622C370.361 63.4374 370.304 63.6391 370.304 63.845V66.177C370.304 66.4721 370.187 66.7551 369.978 66.9637C369.77 67.1724 369.487 67.2896 369.192 67.2896H349.504C349.209 67.2896 348.926 67.1724 348.718 66.9637C348.509 66.7551 348.392 66.4721 348.392 66.177V65.1964C348.392 64.9909 348.335 64.7894 348.228 64.6144C348.12 64.4393 347.966 64.2976 347.783 64.2048C347.6 64.1121 347.395 64.072 347.19 64.089C346.985 64.1061 346.79 64.1796 346.624 64.3014C345.819 64.8937 345.013 65.4733 344.182 66.0493C343.941 66.2159 343.645 66.2815 343.356 66.2322C343.067 66.1829 342.809 66.0225 342.638 65.7854C341.993 64.8829 341.158 63.8228 340.32 62.8373C340.174 62.6651 339.978 62.5416 339.76 62.4834C339.541 62.4252 339.31 62.4351 339.097 62.5116C338.885 62.5881 338.7 62.7277 338.569 62.9118C338.437 63.0958 338.365 63.3156 338.362 63.5419L338.348 64.3858C338.344 64.6778 338.225 64.9562 338.017 65.1611C337.809 65.366 337.529 65.4808 337.237 65.4808H333.033C332.739 65.4808 332.456 65.598 332.247 65.8067C332.039 66.0153 331.922 66.2983 331.922 66.5934V69.4501C331.922 69.7451 332.039 70.0281 332.247 70.2368C332.456 70.4454 332.739 70.5626 333.033 70.5626H337.443C337.589 70.5626 337.734 70.5914 337.869 70.6473C338.004 70.7032 338.126 70.7852 338.229 70.8885C338.333 70.9918 338.415 71.1145 338.47 71.2495C338.526 71.3844 338.555 71.5291 338.555 71.6752V76.9443C338.555 77.0904 338.526 77.2351 338.47 77.3701C338.415 77.505 338.333 77.6277 338.229 77.731C338.126 77.8343 338.004 77.9163 337.869 77.9722C337.734 78.0281 337.589 78.0569 337.443 78.0569H333.033C332.887 78.0569 332.743 78.0856 332.608 78.1416C332.473 78.1975 332.351 78.2794 332.247 78.3827C332.144 78.486 332.062 78.6087 332.006 78.7437C331.951 78.8787 331.922 79.0233 331.922 79.1695V82.3706C331.922 82.5167 331.951 82.6614 332.006 82.7964C332.062 82.9313 332.144 83.054 332.247 83.1573C332.351 83.2606 332.473 83.3426 332.608 83.3985C332.743 83.4544 332.887 83.4832 333.033 83.4832H339.075C339.222 83.4829 339.368 83.5119 339.503 83.5684C339.639 83.6249 339.762 83.7078 339.866 83.8124C339.969 83.9169 340.051 84.041 340.106 84.1774C340.161 84.3137 340.188 84.4597 340.187 84.6068C340.178 85.3197 340.159 86.2078 340.12 86.7562C339.849 98.4245 339.577 105.981 339.104 110.757C339.08 111.006 339.14 111.257 339.276 111.468C339.412 111.679 339.615 111.838 339.852 111.919C340.089 112 340.346 111.999 340.583 111.916C340.819 111.832 341.021 111.672 341.154 111.46C344.034 106.562 345.968 101.167 346.857 95.5546C346.882 95.4081 346.937 95.2681 347.017 95.1431C347.097 95.018 347.202 94.9104 347.325 94.8266C347.447 94.7427 347.585 94.6844 347.731 94.655C347.877 94.6257 348.027 94.6259 348.172 94.6556L353.412 95.7458C353.702 95.8059 353.956 95.9786 354.119 96.2262C354.282 96.4738 354.34 96.7758 354.28 97.066V97.066ZM321.88 97.2641C322.234 101.683 322.425 106.919 322.453 110.838C322.456 111.109 322.359 111.372 322.182 111.577C322.004 111.782 321.758 111.915 321.49 111.951L319.872 112.166C319.714 112.188 319.553 112.175 319.4 112.129C319.247 112.083 319.106 112.004 318.987 111.898C318.867 111.791 318.772 111.661 318.708 111.514C318.644 111.368 318.612 111.209 318.615 111.049C318.693 107.129 318.568 101.901 318.284 97.5659C318.264 97.2772 318.358 96.9923 318.545 96.7718C318.732 96.5513 318.998 96.4126 319.286 96.3853L320.666 96.2524C320.812 96.2378 320.96 96.2525 321.101 96.2956C321.241 96.3388 321.372 96.4095 321.485 96.5036C321.598 96.5978 321.691 96.7135 321.759 96.8441C321.827 96.9746 321.868 97.1174 321.88 97.2641V97.2641ZM320.593 53.3284V56.7877C320.593 57.0828 320.71 57.3657 320.919 57.5744C321.127 57.783 321.41 57.9003 321.705 57.9003H324.102C324.248 57.9003 324.393 57.8715 324.528 57.8156C324.663 57.7597 324.785 57.6777 324.888 57.5744C324.992 57.4711 325.073 57.3484 325.129 57.2135C325.185 57.0785 325.214 56.9338 325.214 56.7877V53.3284C325.214 53.1823 325.185 53.0376 325.129 52.9026C325.073 52.7677 324.992 52.645 324.888 52.5417C324.785 52.4384 324.663 52.3564 324.528 52.3005C324.393 52.2446 324.248 52.2158 324.102 52.2158H321.705C321.41 52.2158 321.127 52.3331 320.919 52.5417C320.71 52.7504 320.593 53.0333 320.593 53.3284V53.3284ZM324.102 65.4808H321.705C321.41 65.4808 321.127 65.598 320.919 65.8067C320.71 66.0153 320.593 66.2983 320.593 66.5934V69.4501C320.593 69.7451 320.71 70.0281 320.919 70.2368C321.127 70.4454 321.41 70.5627 321.705 70.5627H324.102C324.248 70.5627 324.393 70.5339 324.528 70.478C324.663 70.422 324.785 70.3401 324.888 70.2368C324.992 70.1335 325.073 70.0108 325.129 69.8758C325.185 69.7409 325.214 69.5962 325.214 69.4501V66.5934C325.214 66.4473 325.185 66.3026 325.129 66.1676C325.073 66.0326 324.992 65.91 324.888 65.8067C324.785 65.7034 324.663 65.6214 324.528 65.5655C324.393 65.5096 324.248 65.4808 324.102 65.4808V65.4808ZM321.705 83.4832H324.102C324.397 83.4832 324.68 83.3659 324.888 83.1573C325.097 82.9486 325.214 82.6656 325.214 82.3706V79.1694C325.214 78.8743 325.097 78.5914 324.888 78.3827C324.68 78.174 324.397 78.0568 324.102 78.0568H321.705C321.559 78.0568 321.414 78.0856 321.28 78.1415C321.145 78.1974 321.022 78.2794 320.919 78.3827C320.816 78.486 320.734 78.6087 320.678 78.7437C320.622 78.8786 320.593 79.0233 320.593 79.1694V82.3706C320.593 82.5167 320.622 82.6613 320.678 82.7963C320.734 82.9313 320.816 83.054 320.919 83.1573C321.022 83.2606 321.145 83.3425 321.28 83.3985C321.414 83.4544 321.559 83.4832 321.705 83.4832V83.4832ZM326.396 96.2802C327.15 100.17 327.915 104.727 328.255 108.086C328.283 108.356 328.211 108.627 328.054 108.847C327.896 109.068 327.663 109.223 327.399 109.284L326.061 109.593C325.898 109.652 325.724 109.673 325.552 109.656C325.379 109.638 325.213 109.582 325.066 109.491C324.919 109.4 324.793 109.277 324.7 109.131C324.607 108.986 324.547 108.82 324.526 108.648C324.178 104.736 323.615 100.846 322.84 96.9954C322.81 96.8509 322.808 96.7018 322.836 96.5568C322.864 96.4117 322.92 96.2736 323.001 96.1505C323.083 96.0274 323.188 95.9218 323.31 95.8397C323.433 95.7577 323.571 95.7008 323.716 95.6725L325.097 95.4065C325.24 95.3784 325.386 95.3787 325.529 95.4074C325.671 95.4361 325.807 95.4926 325.927 95.5738C326.048 95.6549 326.151 95.7591 326.232 95.8803C326.312 96.0015 326.368 96.1374 326.396 96.2802V96.2802ZM343.244 71.8542H356.97C357.265 71.8542 357.547 71.9714 357.756 72.1801C357.964 72.3887 358.081 72.6717 358.081 72.9668V91.6726C358.081 91.9676 357.964 92.2506 357.756 92.4593C357.547 92.6679 357.265 92.7852 356.97 92.7852H343.244C342.949 92.7852 342.666 92.6679 342.458 92.4593C342.249 92.2506 342.132 91.9676 342.132 91.6726V72.9668C342.132 72.6717 342.249 72.3887 342.458 72.1801C342.666 71.9714 342.949 71.8542 343.244 71.8542V71.8542ZM348.982 86.3254H350.858C351.004 86.3254 351.149 86.2966 351.284 86.2407C351.418 86.1848 351.541 86.1028 351.644 85.9995C351.747 85.8962 351.829 85.7735 351.885 85.6386C351.941 85.5036 351.97 85.3589 351.97 85.2128V79.3411C351.97 79.195 351.941 79.0504 351.885 78.9154C351.829 78.7804 351.747 78.6577 351.644 78.5544C351.541 78.4511 351.418 78.3692 351.284 78.3132C351.149 78.2573 351.004 78.2286 350.858 78.2286H348.982C348.836 78.2286 348.692 78.2573 348.557 78.3132C348.422 78.3692 348.3 78.4511 348.196 78.5544C348.093 78.6577 348.011 78.7804 347.955 78.9154C347.9 79.0504 347.871 79.195 347.871 79.3411V85.2128C347.871 85.3589 347.9 85.5036 347.955 85.6385C348.011 85.7735 348.093 85.8962 348.196 85.9995C348.3 86.1028 348.422 86.1848 348.557 86.2407C348.692 86.2966 348.836 86.3254 348.982 86.3254H348.982ZM365.551 57.5963C363.755 55.9928 362.011 54.3464 360.376 52.6354C360.267 52.5203 360.134 52.43 359.987 52.3706C359.84 52.3113 359.682 52.2844 359.524 52.2916C359.365 52.2989 359.21 52.3402 359.069 52.4127C358.928 52.4852 358.804 52.5873 358.706 52.7119C357.315 54.4365 355.827 56.0812 354.251 57.6384C354.094 57.7929 353.987 57.9905 353.943 58.2062C353.899 58.4219 353.92 58.6458 354.004 58.8494C354.087 59.0531 354.229 59.2273 354.412 59.3498C354.595 59.4723 354.81 59.5375 355.03 59.5373H364.815C365.04 59.5374 365.259 59.4689 365.445 59.341C365.63 59.2132 365.772 59.0319 365.852 58.8212C365.932 58.6106 365.946 58.3807 365.892 58.1619C365.839 57.9431 365.72 57.7458 365.551 57.5963H365.551ZM372.97 96.6932C372.534 99.461 371.958 102.205 371.243 104.914C371.186 105.123 371.191 105.344 371.26 105.549C371.328 105.755 371.456 105.935 371.627 106.068C374.229 108.06 376.707 110.211 379.046 112.508C379.23 112.697 379.342 112.946 379.36 113.21C379.378 113.473 379.301 113.735 379.144 113.948L375.387 119.044C375.289 119.177 375.162 119.287 375.015 119.365C374.869 119.443 374.707 119.487 374.542 119.494C374.376 119.501 374.211 119.471 374.058 119.406C373.906 119.341 373.77 119.242 373.66 119.118C372.241 117.574 370.744 116.102 369.177 114.708C369.05 114.593 368.899 114.509 368.735 114.462C368.57 114.415 368.397 114.407 368.229 114.438C368.061 114.469 367.903 114.539 367.766 114.641C367.629 114.744 367.518 114.877 367.441 115.029C366.591 116.766 365.607 118.434 364.5 120.018C364.406 120.153 364.284 120.264 364.143 120.346C364.001 120.428 363.843 120.477 363.68 120.491C363.518 120.504 363.354 120.482 363.201 120.425C363.048 120.368 362.909 120.278 362.794 120.161C361.346 118.717 359.807 117.367 358.187 116.119C358.072 116.031 357.975 115.922 357.902 115.797C357.829 115.672 357.782 115.533 357.763 115.39C357.744 115.246 357.753 115.1 357.79 114.96C357.828 114.821 357.892 114.69 357.981 114.575C361.681 109.873 363.956 102.909 365.076 95.2409C365.097 95.0916 365.148 94.9481 365.225 94.8191C365.303 94.6902 365.407 94.5784 365.529 94.4907C365.652 94.403 365.791 94.3411 365.938 94.3089C366.085 94.2767 366.237 94.2747 366.385 94.3032L372.082 95.4214C372.365 95.4772 372.616 95.6409 372.782 95.8781C372.948 96.1152 373.015 96.4074 372.97 96.6932V96.6932ZM361.578 71.8542H375.9C376.195 71.8542 376.478 71.9714 376.686 72.1801C376.894 72.3887 377.012 72.6717 377.012 72.9668V91.6726C377.012 91.9676 376.894 92.2506 376.686 92.4593C376.478 92.6679 376.195 92.7852 375.9 92.7852H361.578C361.432 92.7852 361.287 92.7564 361.153 92.7005C361.018 92.6446 360.895 92.5626 360.792 92.4593C360.689 92.356 360.607 92.2333 360.551 92.0983C360.495 91.9634 360.466 91.8187 360.466 91.6726V72.9668C360.466 72.8207 360.495 72.676 360.551 72.541C360.607 72.406 360.689 72.2834 360.792 72.1801C360.895 72.0768 361.018 71.9948 361.153 71.9389C361.287 71.883 361.432 71.8542 361.578 71.8542H361.578ZM367.316 86.3254H369.788C370.083 86.3254 370.366 86.2082 370.574 85.9995C370.783 85.7909 370.9 85.5079 370.9 85.2128V79.3411C370.9 79.0461 370.783 78.7631 370.574 78.5544C370.366 78.3458 370.083 78.2286 369.788 78.2286H367.316C367.021 78.2286 366.739 78.3458 366.53 78.5544C366.322 78.7631 366.205 79.0461 366.205 79.3411V85.2128C366.205 85.3589 366.233 85.5036 366.289 85.6386C366.345 85.7736 366.427 85.8962 366.53 85.9995C366.633 86.1028 366.756 86.1848 366.891 86.2407C367.026 86.2966 367.17 86.3254 367.316 86.3254H367.316Z" fill="#FFCB08"/>
<path d="M452.953 110.781V117.6C452.953 117.895 452.835 118.178 452.627 118.386C452.418 118.595 452.136 118.712 451.841 118.712H388.031C387.736 118.712 387.453 118.595 387.245 118.386C387.036 118.178 386.919 117.895 386.919 117.6V110.781C386.919 110.486 387.036 110.203 387.245 109.994C387.453 109.786 387.736 109.668 388.031 109.668H413.98C414.126 109.668 414.27 109.64 414.405 109.584C414.54 109.528 414.662 109.446 414.766 109.342C414.869 109.239 414.951 109.117 415.007 108.982C415.063 108.847 415.091 108.702 415.091 108.556V103.373C415.091 103.078 414.974 102.795 414.766 102.586C414.557 102.378 414.274 102.261 413.98 102.261H394.515C394.369 102.261 394.225 102.232 394.09 102.176C393.955 102.12 393.833 102.038 393.729 101.935C393.626 101.831 393.544 101.709 393.488 101.574C393.433 101.439 393.404 101.294 393.404 101.148V94.5874C393.404 94.2923 393.521 94.0093 393.729 93.8007C393.938 93.592 394.221 93.4748 394.515 93.4748H413.98C414.126 93.4748 414.27 93.446 414.405 93.3901C414.54 93.3342 414.662 93.2522 414.766 93.1489C414.869 93.0456 414.951 92.923 415.007 92.788C415.062 92.653 415.091 92.5083 415.091 92.3622V88.0403C415.091 87.8942 415.12 87.7495 415.176 87.6145C415.232 87.4795 415.314 87.3569 415.417 87.2536C415.52 87.1503 415.643 87.0683 415.777 87.0124C415.912 86.9565 416.057 86.9277 416.203 86.9277H423.072C423.218 86.9277 423.363 86.9565 423.498 87.0124C423.633 87.0683 423.755 87.1503 423.858 87.2536C423.962 87.3569 424.044 87.4795 424.099 87.6145C424.155 87.7495 424.184 87.8942 424.184 88.0403V92.3622C424.184 92.6573 424.301 92.9403 424.51 93.1489C424.718 93.3576 425.001 93.4748 425.296 93.4748H445.879C446.173 93.4748 446.456 93.592 446.665 93.8007C446.873 94.0093 446.99 94.2923 446.99 94.5874V101.148C446.99 101.443 446.873 101.726 446.665 101.935C446.456 102.143 446.173 102.261 445.879 102.261H425.296C425.001 102.261 424.718 102.378 424.51 102.586C424.301 102.795 424.184 103.078 424.184 103.373V108.556C424.184 108.851 424.301 109.134 424.51 109.343C424.718 109.551 425.001 109.668 425.296 109.668H451.841C452.136 109.668 452.418 109.786 452.627 109.994C452.835 110.203 452.953 110.486 452.953 110.781V110.781ZM394.304 63.9299H388.254C388.108 63.9299 387.964 63.9012 387.829 63.8452C387.694 63.7893 387.572 63.7074 387.468 63.6041C387.365 63.5008 387.283 63.3781 387.227 63.2431C387.172 63.1081 387.143 62.9635 387.143 62.8173V48.5909C387.143 48.2958 387.26 48.0128 387.468 47.8042C387.677 47.5955 387.96 47.4783 388.254 47.4783H414.21C414.387 47.4783 414.562 47.4358 414.72 47.3543C414.878 47.2728 415.014 47.1547 415.117 47.0099C415.22 46.865 415.286 46.6976 415.311 46.5217C415.336 46.3457 415.319 46.1663 415.261 45.9985C414.945 45.0982 414.612 44.2112 414.26 43.4002C414.199 43.2601 414.167 43.1088 414.168 42.9558C414.168 42.8028 414.2 42.6516 414.262 42.5118C414.324 42.372 414.415 42.2466 414.528 42.1437C414.641 42.0409 414.774 41.9627 414.919 41.9142L421.479 39.6919C421.733 39.6047 422.01 39.6135 422.259 39.7166C422.507 39.8198 422.709 40.0102 422.827 40.252C423.846 42.3523 424.738 44.5118 425.5 46.719C425.573 46.94 425.714 47.1322 425.903 47.2685C426.092 47.4047 426.318 47.4781 426.551 47.4782H451.17C451.465 47.4782 451.748 47.5954 451.956 47.8041C452.165 48.0127 452.282 48.2957 452.282 48.5908V62.8173C452.282 62.9634 452.253 63.1081 452.197 63.243C452.141 63.378 452.059 63.5007 451.956 63.604C451.853 63.7073 451.73 63.7893 451.595 63.8452C451.461 63.9011 451.316 63.9299 451.17 63.9299H445.493C445.198 63.9299 444.915 64.0471 444.707 64.2557C444.498 64.4644 444.381 64.7474 444.381 65.0424V69.7079C444.381 70.003 444.264 70.286 444.056 70.4946C443.847 70.7033 443.565 70.8205 443.27 70.8205H438.378C438.156 70.8201 437.939 70.8862 437.755 71.0102C437.572 71.1342 437.429 71.3104 437.346 71.5162C437.263 71.722 437.244 71.9478 437.291 72.1647C437.337 72.3816 437.448 72.5796 437.607 72.7332C441.11 76.0432 444.375 79.5968 447.378 83.3674C447.556 83.6012 447.635 83.8962 447.597 84.1879C447.558 84.4796 447.406 84.7443 447.174 84.9241L441.964 88.9592C441.846 89.0522 441.709 89.1199 441.564 89.1582C441.418 89.1964 441.266 89.2045 441.117 89.1817C440.968 89.159 440.825 89.106 440.698 89.026C440.57 88.946 440.46 88.8407 440.374 88.7166C439.574 87.5543 438.593 86.2092 437.456 84.8064C437.339 84.664 437.188 84.5526 437.018 84.4816C436.847 84.4107 436.662 84.3825 436.478 84.3994C407.503 87.0964 401.029 87.6809 397.87 88.7274C397.725 88.7745 397.573 88.7913 397.422 88.7768C397.271 88.7622 397.125 88.7167 396.992 88.643C396.86 88.5692 396.744 88.4689 396.652 88.3483C396.559 88.2277 396.493 88.0893 396.457 87.9419C395.993 86.1015 395.265 83.4076 394.61 81.4099C394.521 81.1285 394.546 80.8236 394.678 80.5601C394.811 80.2966 395.041 80.0952 395.319 79.9987C396.864 79.3041 398.282 78.3565 399.514 77.1949C400.447 76.4536 402.291 74.8703 404.476 72.7322C404.634 72.5775 404.743 72.3792 404.788 72.1626C404.833 71.9461 404.813 71.721 404.73 71.516C404.646 71.311 404.504 71.1354 404.321 71.0116C404.138 70.8878 403.922 70.8212 403.701 70.8205H396.527C396.232 70.8205 395.949 70.7033 395.741 70.4947C395.533 70.286 395.415 70.003 395.415 69.708V65.0425C395.415 64.7474 395.298 64.4644 395.09 64.2558C394.881 64.0472 394.599 63.9299 394.304 63.9299V63.9299ZM395.789 57.8928V60.9222C395.789 61.0683 395.817 61.213 395.873 61.348C395.929 61.483 396.011 61.6056 396.114 61.7089C396.218 61.8122 396.34 61.8942 396.475 61.9501C396.61 62.006 396.754 62.0348 396.9 62.0348H442.152C442.298 62.0348 442.442 62.006 442.577 61.9501C442.712 61.8942 442.835 61.8122 442.938 61.7089C443.041 61.6056 443.123 61.483 443.179 61.348C443.235 61.213 443.263 61.0683 443.263 60.9222V57.8928C443.263 57.5978 443.146 57.3148 442.938 57.1061C442.729 56.8975 442.447 56.7802 442.152 56.7802H396.9C396.605 56.7802 396.323 56.8975 396.114 57.1061C395.906 57.3147 395.789 57.5977 395.789 57.8928V57.8928ZM429.094 75.7258C428.68 75.3196 428.271 74.9256 427.874 74.5467C427.759 74.4364 427.669 74.3025 427.61 74.1541C427.552 74.0058 427.525 73.8464 427.534 73.687C427.542 73.5277 427.585 73.372 427.659 73.2306C427.733 73.0893 427.837 72.9657 427.963 72.8681L428.036 72.8113C428.219 72.669 428.353 72.473 428.419 72.2508C428.485 72.0286 428.48 71.7913 428.405 71.572C428.33 71.3527 428.188 71.1624 428 71.0277C427.811 70.8929 427.585 70.8205 427.354 70.8205H418.18C418.029 70.8206 417.879 70.8519 417.741 70.9125C417.602 70.9731 417.478 71.0616 417.375 71.1727C415.524 73.1654 413.54 75.0779 411.518 76.9097C411.345 77.0643 411.225 77.2691 411.175 77.4954C411.125 77.7216 411.146 77.958 411.237 78.1712C411.328 78.3845 411.483 78.5639 411.681 78.6844C411.879 78.8049 412.109 78.8603 412.34 78.8429C416.754 78.5108 424.495 77.9285 428.408 77.6342C428.621 77.6174 428.825 77.5394 428.995 77.4095C429.165 77.2796 429.294 77.1033 429.367 76.9018C429.439 76.7003 429.452 76.4821 429.404 76.2735C429.355 76.0649 429.248 75.8747 429.094 75.7258V75.7258Z" fill="#FFCB08"/>
</g>
<defs>
<clipPath id="clip0_682:2487">
<rect width="485" height="99" fill="white" transform="translate(8 34)"/>
</clipPath>
</defs>
</svg>
