<svg width="187" height="112" viewBox="0 0 187 112" fill="none" xmlns="http://www.w3.org/2000/svg">
<rect width="186.129" height="112" rx="33" fill="#FFE6EC"/>
<path d="M33.7509 86.1704C34.8143 83.05 37.8071 80.7812 41.3069 80.7812C44.7194 80.7812 47.6191 83.0722 48.5203 86.1704H33.7509Z" fill="#15047C" stroke="#15047C" stroke-width="5"/>
<path d="M29.6583 40.9114C32.4162 39.2423 35.495 38.1976 38.6786 37.8377V43.3441C36.4948 43.673 34.3888 44.4307 32.4853 45.5827C29.8632 47.1696 27.7255 49.4438 26.3039 52.159C24.8822 54.8742 24.2309 57.9268 24.4204 60.9858C24.61 64.0447 25.6332 66.9935 27.3792 69.5124C29.1252 72.0313 31.5273 74.0243 34.3252 75.2753C37.1232 76.5263 40.2101 76.9876 43.2515 76.6092C46.2929 76.2308 49.1728 75.0272 51.5789 73.1288C53.52 71.5972 55.0931 69.6605 56.1934 67.4623L61.9351 67.4623C61.3025 68.7286 60.5578 70.0816 59.7487 71.398C58.1082 74.0669 56.3752 76.2996 54.961 77.4154C51.7725 79.9312 47.9561 81.5262 43.9256 82.0276C39.8952 82.5291 35.8043 81.9177 32.0965 80.2599C28.3887 78.6021 25.2054 75.961 22.8916 72.623C20.5779 69.2849 19.2219 65.3772 18.9707 61.3234C18.7195 57.2697 19.5827 53.2245 21.4666 49.6263C23.3506 46.0281 26.1835 43.0143 29.6583 40.9114Z" fill="#FFCB08" stroke="#15047C" stroke-width="5"/>
<rect x="58.9025" y="57.3034" width="18.2799" height="5.69468" rx="2.84734" transform="rotate(56.2649 58.9025 57.3034)" fill="white" stroke="#15047C" stroke-width="5"/>
<path d="M25.6428 89.6426H56.8102C60.8051 89.6426 64.1786 92.3028 65.256 95.9484L17.197 95.9484C18.2744 92.3028 21.648 89.6426 25.6428 89.6426Z" fill="#FFCB08" stroke="#15047C" stroke-width="5"/>
<path d="M50.6167 38.6979L59.643 47.1986L54.8199 52.3199L45.7936 43.8193C44.3794 42.4874 44.3126 40.2613 45.6445 38.8471C46.9763 37.4328 49.2025 37.3661 50.6167 38.6979Z" fill="#FFCB08" stroke="#15047C" stroke-width="5"/>
<rect x="22.2964" y="13.1408" width="20.0798" height="4.25045" rx="2.12522" transform="rotate(41.5835 22.2964 13.1408)" fill="#FFCB08" stroke="#15047C" stroke-width="4.25045"/>
<path d="M37.5585 22.7733L55.8494 40.9051L48.0446 48.7784L29.7537 30.6466C27.5796 28.4914 27.5643 24.9817 29.7195 22.8076C31.8747 20.6334 35.3844 20.6181 37.5585 22.7733Z" fill="#FFCB08" stroke="#15047C" stroke-width="5"/>
<rect x="14.8134" y="19.5312" width="16.2587" height="5.69468" rx="2.84734" transform="rotate(-47.4074 14.8134 19.5312)" fill="#FFCB08" stroke="#15047C" stroke-width="5"/>
<path d="M72.449 96.5591V88.7255H110.894C113.058 88.7255 114.811 90.4791 114.811 92.6423C114.811 94.8055 113.058 96.5591 110.894 96.5591H72.449Z" fill="#BDCFFE" stroke="#15047C" stroke-width="5"/>
<path d="M79.2701 98.4482C78.8482 98.4482 78.5062 98.1062 78.5062 97.6843V94.0176C78.5062 93.5957 78.8482 93.2537 79.2701 93.2537V93.2537C79.692 93.2537 80.034 93.5957 80.034 94.0176V97.6843C80.034 98.1062 79.692 98.4482 79.2701 98.4482V98.4482Z" fill="#15047C"/>
<path d="M83.547 98.4482C83.1252 98.4482 82.7831 98.1062 82.7831 97.6843V93.1009C82.7831 92.679 83.1252 92.337 83.547 92.337V92.337C83.9689 92.337 84.311 92.679 84.311 93.1009V97.6843C84.311 98.1062 83.9689 98.4482 83.547 98.4482V98.4482Z" fill="#15047C"/>
<path d="M88.1302 98.7534C87.7083 98.7534 87.3663 98.4114 87.3663 97.9895V94.0172C87.3663 93.5953 87.7083 93.2533 88.1302 93.2533V93.2533C88.5521 93.2533 88.8941 93.5953 88.8941 94.0172V97.9895C88.8941 98.4114 88.5521 98.7534 88.1302 98.7534V98.7534Z" fill="#15047C"/>
<path d="M91.7972 99.0591C91.3753 99.0591 91.0333 98.7171 91.0333 98.2952V93.1006C91.0333 92.6787 91.3753 92.3367 91.7972 92.3367V92.3367C92.2191 92.3367 92.5611 92.6787 92.5611 93.1006V98.2952C92.5611 98.7171 92.2191 99.0591 91.7972 99.0591V99.0591Z" fill="#15047C"/>
<path d="M95.7695 98.7534C95.3476 98.7534 95.0056 98.4114 95.0056 97.9895V92.1838C95.0056 91.7619 95.3476 91.4199 95.7695 91.4199V91.4199C96.1914 91.4199 96.5334 91.7619 96.5334 92.1838V97.9895C96.5334 98.4114 96.1914 98.7534 95.7695 98.7534V98.7534Z" fill="#15047C"/>
<path d="M78.5609 53.8921H86.3945V92.3374C86.3945 94.5006 84.6409 96.2542 82.4777 96.2542C80.3145 96.2542 78.5609 94.5006 78.5609 92.3374V53.8921Z" fill="#BDCFFE" stroke="#15047C" stroke-width="5"/>
<path d="M76.6718 60.7117C76.6718 60.2898 77.0138 59.9478 77.4357 59.9478H81.1025C81.5244 59.9478 81.8664 60.2898 81.8664 60.7117V60.7117C81.8664 61.1336 81.5244 61.4756 81.1025 61.4756H77.4357C77.0138 61.4756 76.6718 61.1336 76.6718 60.7117V60.7117Z" fill="#15047C"/>
<path d="M76.6718 64.99C76.6718 64.5681 77.0138 64.2261 77.4357 64.2261H82.0192C82.441 64.2261 82.7831 64.5681 82.7831 64.99V64.99C82.7831 65.4119 82.441 65.7539 82.0192 65.7539H77.4357C77.0138 65.7539 76.6718 65.4119 76.6718 64.99V64.99Z" fill="#15047C"/>
<path d="M76.3656 69.573C76.3656 69.1511 76.7076 68.8091 77.1295 68.8091H81.1018C81.5237 68.8091 81.8657 69.1511 81.8657 69.573V69.573C81.8657 69.9949 81.5237 70.3369 81.1018 70.3369H77.1295C76.7076 70.3369 76.3656 69.9949 76.3656 69.573V69.573Z" fill="#15047C"/>
<path d="M76.0602 73.2395C76.0602 72.8176 76.4022 72.4756 76.8241 72.4756H82.0186C82.4405 72.4756 82.7825 72.8176 82.7825 73.2395V73.2395C82.7825 73.6614 82.4405 74.0034 82.0186 74.0034H76.8241C76.4022 74.0034 76.0602 73.6614 76.0602 73.2395V73.2395Z" fill="#15047C"/>
<path d="M76.3656 77.2121C76.3656 76.7903 76.7076 76.4482 77.1295 76.4482H82.9352C83.3571 76.4482 83.6991 76.7903 83.6991 77.2121V77.2121C83.6991 77.634 83.3571 77.9761 82.9352 77.9761H77.1295C76.7076 77.9761 76.3656 77.634 76.3656 77.2121V77.2121Z" fill="#15047C"/>
<mask id="path-22-inside-1_312:123" fill="white">
<path fill-rule="evenodd" clip-rule="evenodd" d="M130.403 57.5713H119.544V71.2282C119.544 71.5198 119.566 71.8059 119.611 72.085C118.784 72.6997 118.043 73.4753 117.433 74.4119L110.24 85.4521C106.34 91.4389 110.636 99.3648 117.781 99.3648H132.166C139.311 99.3648 143.607 91.4389 139.707 85.4521L132.514 74.4119C131.904 73.4752 131.163 72.6995 130.336 72.0848C130.38 71.8057 130.403 71.5197 130.403 71.2282V57.5713Z"/>
</mask>
<path fill-rule="evenodd" clip-rule="evenodd" d="M130.403 57.5713H119.544V71.2282C119.544 71.5198 119.566 71.8059 119.611 72.085C118.784 72.6997 118.043 73.4753 117.433 74.4119L110.24 85.4521C106.34 91.4389 110.636 99.3648 117.781 99.3648H132.166C139.311 99.3648 143.607 91.4389 139.707 85.4521L132.514 74.4119C131.904 73.4752 131.163 72.6995 130.336 72.0848C130.38 71.8057 130.403 71.5197 130.403 71.2282V57.5713Z" fill="#BDCFFE"/>
<path d="M119.544 57.5713V52.5713H114.544V57.5713H119.544ZM130.403 57.5713H135.403V52.5713H130.403V57.5713ZM119.611 72.085L122.594 76.0978L125.023 74.292L124.549 71.3022L119.611 72.085ZM117.433 74.4119L113.243 71.6826L113.243 71.6826L117.433 74.4119ZM110.24 85.4521L106.051 82.7229L106.051 82.7229L110.24 85.4521ZM139.707 85.4521L135.517 88.1814L135.517 88.1814L139.707 85.4521ZM132.514 74.4119L136.704 71.6826L136.704 71.6826L132.514 74.4119ZM130.336 72.0848L125.398 71.3022L124.924 74.292L127.353 76.0977L130.336 72.0848ZM119.544 62.5713H130.403V52.5713H119.544V62.5713ZM124.544 71.2282V57.5713H114.544V71.2282H124.544ZM124.549 71.3022C124.546 71.2811 124.544 71.2567 124.544 71.2282H114.544C114.544 71.7828 114.587 72.3307 114.672 72.8678L124.549 71.3022ZM121.622 77.1411C121.907 76.703 122.239 76.3613 122.594 76.0978L116.628 68.0722C115.328 69.0381 114.178 70.2475 113.243 71.6826L121.622 77.1411ZM114.43 88.1814L121.622 77.1411L113.243 71.6826L106.051 82.7229L114.43 88.1814ZM117.781 94.3648C114.606 94.3648 112.696 90.8422 114.43 88.1814L106.051 82.7229C99.9839 92.0356 106.667 104.365 117.781 104.365V94.3648ZM132.166 94.3648H117.781V104.365H132.166V94.3648ZM135.517 88.1814C137.251 90.8422 135.342 94.3648 132.166 94.3648V104.365C143.281 104.365 149.963 92.0356 143.896 82.7229L135.517 88.1814ZM128.325 77.1411L135.517 88.1814L143.896 82.7229L136.704 71.6826L128.325 77.1411ZM127.353 76.0977C127.708 76.3612 128.04 76.703 128.325 77.1411L136.704 71.6826C135.769 70.2473 134.618 69.0377 133.319 68.0718L127.353 76.0977ZM125.403 71.2282C125.403 71.2567 125.401 71.2811 125.398 71.3022L135.274 72.8673C135.36 72.3304 135.403 71.7827 135.403 71.2282H125.403ZM125.403 57.5713V71.2282H135.403V57.5713H125.403Z" fill="#15047C" mask="url(#path-22-inside-1_312:123)"/>
<rect x="114.79" y="53.7266" width="20.259" height="4.43165" rx="2.21582" fill="white" stroke="#15047C" stroke-width="4.43165"/>
<mask id="path-25-inside-2_312:123" fill="white">
<path fill-rule="evenodd" clip-rule="evenodd" d="M114.469 78.96L110.24 85.4509C106.34 91.4377 110.636 99.3636 117.781 99.3636H132.166C139.311 99.3636 143.607 91.4377 139.707 85.4509L135.478 78.96H114.469Z"/>
</mask>
<path fill-rule="evenodd" clip-rule="evenodd" d="M114.469 78.96L110.24 85.4509C106.34 91.4377 110.636 99.3636 117.781 99.3636H132.166C139.311 99.3636 143.607 91.4377 139.707 85.4509L135.478 78.96H114.469Z" fill="#FFCB08"/>
<path d="M110.24 85.4509L114.43 88.1802L114.43 88.1802L110.24 85.4509ZM114.469 78.96V73.96H111.759L110.28 76.2307L114.469 78.96ZM139.707 85.4509L135.517 88.1802L135.517 88.1802L139.707 85.4509ZM135.478 78.96L139.668 76.2307L138.188 73.96H135.478V78.96ZM114.43 88.1802L118.658 81.6892L110.28 76.2307L106.051 82.7217L114.43 88.1802ZM117.781 94.3636C114.606 94.3636 112.696 90.841 114.43 88.1802L106.051 82.7217C99.9839 92.0344 106.667 104.364 117.781 104.364V94.3636ZM132.166 94.3636H117.781V104.364H132.166V94.3636ZM135.517 88.1802C137.251 90.841 135.342 94.3636 132.166 94.3636V104.364C143.281 104.364 149.963 92.0344 143.896 82.7217L135.517 88.1802ZM131.289 81.6892L135.517 88.1802L143.896 82.7217L139.668 76.2307L131.289 81.6892ZM135.478 73.96H114.469V83.96H135.478V73.96Z" fill="#15047C" mask="url(#path-25-inside-2_312:123)"/>
<rect x="151.205" y="53.421" width="18.7921" height="3.81953" rx="1.90976" fill="white" stroke="#15047C" stroke-width="3.81953"/>
<mask id="path-28-inside-3_312:123" fill="white">
<path fill-rule="evenodd" clip-rule="evenodd" d="M165.619 56.9678H155.535V67.5798C148.968 69.7563 144.229 75.9478 144.229 83.2459C144.229 92.3588 151.617 99.7463 160.73 99.7463C169.843 99.7463 177.23 92.3588 177.23 83.2459C177.23 75.8353 172.345 69.5657 165.619 67.482V56.9678Z"/>
</mask>
<path fill-rule="evenodd" clip-rule="evenodd" d="M165.619 56.9678H155.535V67.5798C148.968 69.7563 144.229 75.9478 144.229 83.2459C144.229 92.3588 151.617 99.7463 160.73 99.7463C169.843 99.7463 177.23 92.3588 177.23 83.2459C177.23 75.8353 172.345 69.5657 165.619 67.482V56.9678Z" fill="#BDCFFE"/>
<path d="M155.535 56.9678V52.9678H151.535V56.9678H155.535ZM165.619 56.9678H169.619V52.9678H165.619V56.9678ZM155.535 67.5798L156.794 71.3767L159.535 70.4681V67.5798H155.535ZM165.619 67.482H161.619V70.4303L164.435 71.3028L165.619 67.482ZM155.535 60.9678H165.619V52.9678H155.535V60.9678ZM159.535 67.5798V56.9678H151.535V67.5798H159.535ZM148.229 83.2459C148.229 77.7232 151.814 73.0271 156.794 71.3767L154.277 63.7828C146.121 66.4855 140.229 74.1724 140.229 83.2459H148.229ZM160.73 95.7463C153.826 95.7463 148.229 90.1497 148.229 83.2459H140.229C140.229 94.568 149.408 103.746 160.73 103.746V95.7463ZM173.23 83.2459C173.23 90.1497 167.633 95.7463 160.73 95.7463V103.746C172.052 103.746 181.23 94.568 181.23 83.2459H173.23ZM164.435 71.3028C169.534 72.8825 173.23 77.6378 173.23 83.2459H181.23C181.23 74.0328 175.156 66.249 166.803 63.6612L164.435 71.3028ZM161.619 56.9678V67.482H169.619V56.9678H161.619Z" fill="#15047C" mask="url(#path-28-inside-3_312:123)"/>
<mask id="path-30-inside-4_312:123" fill="white">
<path fill-rule="evenodd" clip-rule="evenodd" d="M155.536 63.3843V67.8862C148.968 70.0627 144.229 76.2542 144.229 83.5524C144.229 92.6653 151.617 100.053 160.73 100.053C169.843 100.053 177.23 92.6653 177.23 83.5524C177.23 76.1418 172.345 69.8722 165.619 67.7885V63.3843H155.536Z"/>
</mask>
<path fill-rule="evenodd" clip-rule="evenodd" d="M155.536 63.3843V67.8862C148.968 70.0627 144.229 76.2542 144.229 83.5524C144.229 92.6653 151.617 100.053 160.73 100.053C169.843 100.053 177.23 92.6653 177.23 83.5524C177.23 76.1418 172.345 69.8722 165.619 67.7885V63.3843H155.536Z" fill="#FFCB08"/>
<path d="M155.536 63.3843V59.3843H151.536V63.3843H155.536ZM155.536 67.8862L156.794 71.6832L159.536 70.7746V67.8862H155.536ZM165.619 67.7885H161.619V70.7368L164.435 71.6093L165.619 67.7885ZM165.619 63.3843H169.619V59.3843H165.619V63.3843ZM151.536 63.3843V67.8862H159.536V63.3843H151.536ZM154.277 64.0893C146.122 66.792 140.229 74.4789 140.229 83.5524H148.229C148.229 78.0296 151.814 73.3335 156.794 71.6832L154.277 64.0893ZM140.229 83.5524C140.229 94.8744 149.408 104.053 160.73 104.053V96.0528C153.826 96.0528 148.229 90.4562 148.229 83.5524H140.229ZM160.73 104.053C172.052 104.053 181.23 94.8744 181.23 83.5524H173.23C173.23 90.4562 167.634 96.0528 160.73 96.0528V104.053ZM181.23 83.5524C181.23 74.3393 175.156 66.5554 166.803 63.9676L164.435 71.6093C169.534 73.1889 173.23 77.9443 173.23 83.5524H181.23ZM169.619 67.7885V63.3843H161.619V67.7885H169.619ZM165.619 59.3843H155.536V67.3843H165.619V59.3843Z" fill="#15047C" mask="url(#path-30-inside-4_312:123)"/>
</svg>
