<svg width="76" height="67" viewBox="0 0 76 67" fill="none" xmlns="http://www.w3.org/2000/svg">
<path d="M75.008 23.2208L56.0076 41.0157C54.0049 42.8915 50.6667 41.5007 50.6667 38.7324V29.3154C31.5908 29.4423 23.5434 33.9103 28.9255 51.7385C29.517 53.6979 27.2306 55.2151 25.6261 54.0063C20.4846 50.1329 15.8333 42.724 15.8333 35.2455C15.8333 16.41 31.3499 12.6723 50.6667 12.5661V3.14222C50.6667 0.371408 54.0071 -1.01492 56.0076 0.85899L75.008 18.6543C76.3301 19.8926 76.3312 21.9814 75.008 23.2208V23.2208ZM50.6667 49.6125V58.625H8.44444V16.75H15.1625C15.3757 16.7499 15.5867 16.707 15.7828 16.624C15.9789 16.5409 16.156 16.4194 16.3036 16.2668C18.2765 14.2295 20.5571 12.6171 23.0346 11.3365C24.5031 10.5774 23.959 8.37503 22.303 8.37503H6.33333C2.83549 8.37503 0 11.1872 0 14.6563V60.7188C0 64.1878 2.83549 67 6.33333 67H52.7778C56.2756 67 59.1111 64.1878 59.1111 60.7188V49.0977C59.1111 48.0131 58.0296 47.257 56.9986 47.6187C55.553 48.1257 54.0051 48.2774 52.4875 48.0606C51.5283 47.9237 50.6667 48.6513 50.6667 49.6125V49.6125Z" fill="black"/>
</svg>
