<?xml version="1.0" encoding="utf-8"?>
<!-- Generator: Adobe Illustrator 24.3.0, SVG Export Plug-In . SVG Version: 6.00 Build 0)  -->
<svg version="1.1" id="圖層_1" xmlns="http://www.w3.org/2000/svg" xmlns:xlink="http://www.w3.org/1999/xlink" x="0px" y="0px"
	 viewBox="0 0 628 72" style="enable-background:new 0 0 628 72;" xml:space="preserve">
<style type="text/css">
	.st0{fill:#AF3A81;}
	.st1{fill:#00589D;}
	.st2{fill:#FF0D0D;}
</style>
<path class="st0" d="M592.5,18.3c-10.1,0-18.2,8.1-18.2,18.2s8.1,18.2,18.2,18.2s18.2-8.1,18.2-18.2S602.6,18.3,592.5,18.3z
	 M592.5,48.3c-6.5,0-11.8-5.3-11.8-11.8s5.3-11.8,11.8-11.8s11.8,5.3,11.8,11.8S599,48.3,592.5,48.3z M615.7,17.6
	c0,2.4-1.9,4.2-4.2,4.2c-2.4,0-4.2-1.9-4.2-4.2c0-2.3,1.9-4.2,4.2-4.2C613.8,13.3,615.7,15.2,615.7,17.6z M627.8,21.9
	c-0.3-5.7-1.6-10.7-5.7-14.9c-4.2-4.2-9.2-5.4-14.9-5.7c-5.9-0.3-23.4-0.3-29.3,0C572.2,1.5,567.1,2.8,563,7
	c-4.2,4.2-5.4,9.2-5.7,14.9c-0.3,5.9-0.3,23.4,0,29.3c0.3,5.7,1.6,10.7,5.7,14.9c4.2,4.2,9.2,5.5,14.9,5.7c5.9,0.3,23.4,0.3,29.3,0
	c5.7-0.3,10.7-1.6,14.9-5.7c4.1-4.2,5.4-9.2,5.7-14.9C628.1,45.3,628.1,27.7,627.8,21.9z M620.2,57.4c-1.2,3.1-3.6,5.5-6.7,6.7
	c-4.7,1.9-15.8,1.4-20.9,1.4s-16.3,0.4-20.9-1.4c-3.1-1.2-5.5-3.6-6.7-6.7c-1.9-4.7-1.4-15.8-1.4-20.9s-0.4-16.3,1.4-20.9
	c1.2-3.1,3.6-5.5,6.7-6.7c4.7-1.9,15.8-1.4,20.9-1.4s16.3-0.4,20.9,1.4c3.1,1.2,5.5,3.6,6.7,6.7c1.9,4.7,1.4,15.8,1.4,20.9
	S622,52.8,620.2,57.4z"/>
<path class="st1" d="M515.5,4h-55c-2,0-3.9,0.7-5.3,2c-1.4,1.3-2.2,3-2.2,4.8v49.5c0,1.8,0.8,3.5,2.2,4.8c1.4,1.3,3.3,2,5.3,2h21.4
	V45.6h-9.8V35.5h9.8v-7.7c0-8.7,5.8-13.6,14.6-13.6c4.2,0,8.7,0.7,8.7,0.7v8.6h-4.9c-4.8,0-6.3,2.7-6.3,5.4v6.5h10.7l-1.7,10.1h-9
	V67h21.4c2,0,3.9-0.7,5.3-2c1.4-1.3,2.2-3,2.2-4.8V10.8c0-1.8-0.8-3.5-2.2-4.8C519.4,4.7,517.5,4,515.5,4z"/>
<path class="st2" d="M418.3,14.7c-0.9-3.8-3.7-6.8-7.2-7.8C404.8,5,379.5,5,379.5,5s-25.3,0-31.6,1.9c-3.5,1-6.2,4-7.2,7.8
	c-1.7,6.9-1.7,21.4-1.7,21.4s0,14.4,1.7,21.4c0.9,3.8,3.7,6.7,7.2,7.7c6.3,1.9,31.6,1.9,31.6,1.9s25.3,0,31.6-1.9
	c3.5-1,6.2-3.9,7.2-7.7c1.7-6.9,1.7-21.4,1.7-21.4S420,21.6,418.3,14.7z M371.2,49.2V23l21.2,13.1L371.2,49.2z"/>
<path d="M305,23.2L286,41c-2,1.9-5.3,0.5-5.3-2.3v-9.4c-19.1,0.1-27.1,4.6-21.7,22.4c0.6,2-1.7,3.5-3.3,2.3
	c-5.1-3.9-9.8-11.3-9.8-18.8c0-18.8,15.5-22.6,34.8-22.7V3.1c0-2.8,3.3-4.2,5.3-2.3l19,17.8C306.3,19.9,306.3,22,305,23.2z
	 M280.7,49.6v9h-42.2V16.8h6.7c0.2,0,0.4,0,0.6-0.1c0.2-0.1,0.4-0.2,0.5-0.4c2-2,4.3-3.6,6.7-4.9c1.5-0.8,0.9-3-0.7-3h-16
	c-3.5,0-6.3,2.8-6.3,6.3v46.1c0,3.5,2.8,6.3,6.3,6.3h46.4c3.5,0,6.3-2.8,6.3-6.3V49.1c0-1.1-1.1-1.8-2.1-1.5c-1.4,0.5-3,0.7-4.5,0.4
	C281.5,47.9,280.7,48.7,280.7,49.6z"/>
</svg>
