<svg width="493" height="193" viewBox="0 0 493 193" fill="none" xmlns="http://www.w3.org/2000/svg">
<rect width="493" height="193" rx="33" fill="#FFE6EC"/>
<path d="M19.9326 70.4767L73.1715 135L490 45L19.9326 70.4767Z" fill="#D84618"/>
<path d="M54.3872 132.062C35.1902 132.062 12 113.198 12 89.7847C12 63.9193 39.9976 49.6143 59.3464 49.6143C68.7766 49.6143 81.9832 56.6587 87.0511 62.7307C88.0706 63.9508 88.574 65.5177 88.4545 67.1004C88.335 68.6831 87.602 70.1575 86.4108 71.2121L69.6013 86.1221C68.3957 87.1967 66.8121 87.7531 65.1961 87.6701C63.58 87.5871 62.0623 86.8714 60.9742 85.6791C58.4022 82.8808 57.7837 79.0236 57.2411 75.6203C57.1652 75.1448 57.0783 74.5398 56.9698 74.0212C51.0665 75.1666 42.9385 80.0068 42.9385 89.7847C42.9385 101.345 54.0616 106.153 60.0084 106.153C60.9416 106.153 61.7337 105.451 64.1864 102.912C65.3799 101.648 66.7473 100.222 68.4293 98.7523C69.5519 97.7798 70.989 97.2427 72.4771 97.2398L79.6718 97.3586C81.2839 97.3897 82.8195 98.0483 83.9495 99.1937C85.0795 100.339 85.7137 101.879 85.7163 103.485C85.7163 122.111 73.6815 127.859 60.6812 131.306C58.6247 131.827 56.5092 132.082 54.3872 132.062Z" fill="#15047C"/>
<path d="M86.8024 129.597C85.1707 129.597 83.6056 128.952 82.4517 127.803C81.2978 126.654 80.6494 125.096 80.6494 123.471V71.0271C80.6494 69.4022 81.2978 67.8441 82.4517 66.6952C83.6056 65.5464 85.1707 64.901 86.8024 64.901H96.5692C97.3952 64.9037 98.2123 65.0725 98.9713 65.3974C99.7303 65.7223 100.415 66.1966 100.986 66.7917C103.785 64.7386 107.157 63.6055 110.633 63.5504C113.405 63.4809 116.154 64.0697 118.652 65.2683C119.863 65.8406 120.852 66.7913 121.469 67.9754C122.086 69.1594 122.298 70.5117 122.071 71.8265L120.041 83.7113C119.888 84.587 119.546 85.419 119.038 86.1501C118.53 86.8815 117.869 87.4942 117.101 87.9465C116.332 88.3987 115.474 88.6793 114.586 88.7688C113.698 88.8582 112.801 88.7548 111.957 88.4651C111.069 88.1186 110.122 87.9462 109.168 87.9573C108.202 87.9573 106.347 89.3727 104.892 93.1867V123.439C104.901 125.056 104.267 126.611 103.129 127.765C101.99 128.919 100.44 129.577 98.8154 129.597H86.8024Z" fill="#15047C"/>
<path d="M141.223 130.905C124.219 130.905 112.336 117.065 112.336 97.2497C112.336 87.9472 115.179 79.4117 120.323 73.2208C122.648 70.2881 125.597 67.904 128.957 66.2397C132.318 64.5752 136.006 63.6718 139.758 63.5942C155.07 63.5942 165.01 75.8031 165.01 94.6999C165.042 97.3669 164.784 100.029 164.24 102.641C163.891 103.946 163.119 105.099 162.043 105.922C160.968 106.744 159.649 107.19 158.293 107.19H158.239C158.382 107.407 158.51 107.634 158.619 107.87L162.699 116.298C163.3 117.549 163.458 118.966 163.147 120.318C162.835 121.67 162.073 122.877 160.984 123.742C155.383 128.254 148.428 130.775 141.223 130.905ZM139.454 107.211C140.427 107.82 141.562 108.122 142.71 108.076C144.057 108.075 145.387 107.78 146.606 107.211H139.454Z" fill="#15047C"/>
<path d="M178.77 130.904C167.376 130.904 159.096 121.796 159.096 109.242C159.096 100.49 162.796 94.7964 168.092 91.0148C167.024 90.3904 166.17 89.4605 165.639 88.3461L161.298 79.2597C160.692 77.9673 160.557 76.5046 160.918 75.124C161.278 73.7432 162.111 72.5311 163.273 71.6966C170.783 66.2945 178.401 63.626 185.921 63.626C193.04 63.626 209.589 66.4675 209.589 92.8841V123.471C209.589 125.096 208.941 126.654 207.788 127.803C206.632 128.952 205.068 129.597 203.437 129.597H193.67C192.11 129.595 190.609 129.004 189.47 127.944C186.228 129.854 182.537 130.876 178.77 130.904ZM185.411 106.055C183.935 106.638 183.013 107.286 182.839 107.924C183.284 107.924 183.925 107.762 185.411 106.433V106.055Z" fill="#15047C"/>
<path d="M230.826 130.905C224.467 130.905 209.687 128.398 209.687 105.115V88.0116H209.404C207.773 88.0116 206.207 87.3661 205.054 86.2174C203.9 85.0684 203.252 83.5103 203.252 81.8855V71.6755C203.254 70.1507 203.826 68.6816 204.856 67.5546C205.888 66.4278 207.304 65.7244 208.829 65.5818L210.858 65.3982L211.749 56.2901C211.898 54.776 212.606 53.371 213.737 52.3485C214.869 51.326 216.341 50.7592 217.869 50.7583H227.809C229.441 50.7583 231.007 51.4037 232.16 52.5526C233.313 53.7014 233.962 55.2596 233.962 56.8843V64.9012H239.051C240.683 64.9012 242.249 65.5465 243.402 66.6955C244.556 67.8442 245.204 69.4025 245.204 71.0272V81.8855C245.204 83.5103 244.556 85.0684 243.402 86.2174C242.249 87.3661 240.683 88.0116 239.051 88.0116H233.962V105.115C233.94 106.009 234.03 106.902 234.233 107.773C234.809 107.655 235.37 107.474 235.904 107.233C236.752 106.844 237.677 106.652 238.609 106.671C239.542 106.691 240.456 106.921 241.287 107.344C242.117 107.768 242.839 108.374 243.4 109.116C243.96 109.859 244.344 110.718 244.521 111.63L246.486 121.645C246.759 123.059 246.524 124.524 245.825 125.783C245.124 127.043 244.003 128.018 242.654 128.539C238.896 130.06 234.883 130.862 230.826 130.905Z" fill="#15047C"/>
<path d="M265.857 130.905C262.054 130.885 258.301 130.036 254.863 128.418C251.424 126.799 248.384 124.451 245.954 121.538C240.615 115.336 237.794 106.941 237.794 97.2494C237.794 87.5578 240.615 79.163 245.954 72.9613C248.37 70.0321 251.408 67.6727 254.85 66.0525C258.29 64.4325 262.051 63.5923 265.857 63.5923C269.662 63.5923 273.423 64.4325 276.863 66.0525C280.305 67.6727 283.343 70.0321 285.759 72.9613C291.098 79.163 293.93 87.5578 293.93 97.2494C293.93 106.941 291.098 115.336 285.759 121.538C283.333 124.454 280.293 126.805 276.854 128.424C273.414 130.042 269.661 130.889 265.857 130.905ZM265.857 87.0717C263.838 87.0717 262.319 91.4475 262.319 97.2494C262.319 103.051 263.838 107.416 265.857 107.416C267.875 107.416 269.405 103.095 269.405 97.2494C269.405 91.4043 267.875 87.0717 265.857 87.0717Z" fill="#15047C"/>
<path d="M297.794 129.597C296.163 129.597 294.597 128.952 293.443 127.803C292.29 126.654 291.642 125.096 291.642 123.471V71.0271C291.642 69.4022 292.29 67.8441 293.443 66.6952C294.597 65.5464 296.163 64.901 297.794 64.901H307.56C308.39 64.9006 309.212 65.0682 309.974 65.3931C310.738 65.7182 311.426 66.1939 311.998 66.7917C314.799 64.7417 318.171 63.6091 321.645 63.5504C324.419 63.4809 327.168 64.0697 329.666 65.2683C330.877 65.8404 331.866 66.7904 332.485 67.9743C333.105 69.1581 333.318 70.5107 333.095 71.8265L331.055 83.7113C330.903 84.5865 330.564 85.4186 330.057 86.1498C329.552 86.8811 328.891 87.4942 328.125 87.9465C327.177 88.5089 326.092 88.8039 324.988 88.8001C324.301 88.8005 323.619 88.6873 322.971 88.4651C322.082 88.1176 321.135 87.9451 320.18 87.9573C319.226 87.9573 317.359 89.3727 315.906 93.1867V123.439C315.906 124.243 315.746 125.04 315.437 125.783C315.127 126.526 314.674 127.202 314.104 127.771C313.532 128.339 312.853 128.791 312.107 129.099C311.361 129.406 310.561 129.565 309.753 129.565L297.794 129.597Z" fill="#15047C"/>
<path d="M334.299 129.598C332.668 129.598 331.101 128.952 329.948 127.804C328.795 126.655 328.146 125.097 328.146 123.472V54.0758C328.146 52.451 328.795 50.8929 329.948 49.744C331.101 48.5951 332.668 47.9497 334.299 47.9497H346.345C347.976 47.9497 349.541 48.5951 350.696 49.744C351.849 50.8929 352.497 52.451 352.497 54.0758V105.731H370.869C371.677 105.731 372.475 105.89 373.221 106.198C373.967 106.506 374.646 106.957 375.217 107.526C375.787 108.095 376.238 108.771 376.548 109.514C376.855 110.257 377.013 111.053 377.011 111.857V123.472C377.013 124.276 376.855 125.072 376.548 125.815C376.238 126.559 375.787 127.234 375.217 127.803C374.646 128.372 373.967 128.823 373.221 129.131C372.475 129.439 371.677 129.598 370.869 129.598H334.299Z" fill="#15047C"/>
<path d="M413.516 129.598C412.131 129.599 410.786 129.134 409.699 128.279C408.611 127.424 407.845 126.229 407.527 124.887L403.283 107.093L399.582 91.2535L391.421 124.952C391.101 126.29 390.335 127.482 389.251 128.334C388.166 129.187 386.824 129.651 385.443 129.652H373.223C372.276 129.651 371.342 129.433 370.493 129.013C369.645 128.594 368.905 127.985 368.331 127.234C367.759 126.483 367.368 125.611 367.188 124.685C367.009 123.759 367.047 122.804 367.299 121.894L386.603 52.4335C386.962 51.1435 387.737 50.0064 388.807 49.1964C389.877 48.3865 391.184 47.9485 392.53 47.9497H406.701C408.046 47.9515 409.354 48.3904 410.426 49.1997C411.497 50.009 412.274 51.1445 412.638 52.4335L432.019 121.83C432.272 122.74 432.312 123.696 432.135 124.623C431.955 125.551 431.564 126.425 430.99 127.177C430.418 127.929 429.678 128.539 428.827 128.959C427.978 129.379 427.041 129.598 426.093 129.598H413.516Z" fill="#15047C"/>
<path d="M433.179 129.598C432.332 129.598 431.494 129.423 430.717 129.084C429.94 128.746 429.241 128.251 428.666 127.631C428.09 127.011 427.65 126.279 427.371 125.482C427.092 124.684 426.983 123.838 427.049 122.996L432.475 53.5896C432.595 52.0533 433.293 50.6189 434.43 49.5733C435.568 48.5276 437.058 47.9478 438.606 47.9497H453.092C461.068 47.9497 467.472 49.5596 472.138 52.7468C476.217 55.5344 481.079 60.9905 481.079 71.2113C481.164 76.2071 479.708 81.1085 476.913 85.2571C481.568 89.3627 484.173 95.5427 484.173 103.009C484.173 119.139 472.584 129.555 454.644 129.555L433.179 129.598ZM453.668 106.671C460.179 106.671 460.179 104.424 460.179 102.263C460.179 100.459 460.179 98.7409 453.614 98.7409H453.006L452.106 106.725L453.668 106.671ZM452.29 76.2355C457.13 76.2355 457.13 74.7984 457.13 73.275C457.186 72.712 457.099 72.1439 456.88 71.6219C456.88 71.6219 456.022 70.9305 452.584 70.9305L452.04 76.3327L452.29 76.2355Z" fill="#15047C"/>
<path d="M18.1523 89.7847C18.1523 66.9335 44.1098 55.7402 59.3891 55.7402C66.9855 55.7402 78.445 61.9635 82.3624 66.6418L65.5097 81.5517C62.4168 78.1808 64.1532 67.6899 59.5845 67.6899C50.4581 67.6899 36.7958 74.9504 36.7958 89.8387C36.7958 104.965 50.4907 112.333 60.0187 112.333C65.2383 112.333 67.4087 107.806 72.4874 103.387L79.5736 103.506C79.5736 117.8 71.12 122.23 59.107 125.407C44.3703 129.274 18.1523 112.917 18.1523 89.7847Z" fill="#FFCB08"/>
<path d="M86.8018 71.0269H96.5683L97.4691 80.2971H97.7295C101.072 73.458 105.955 69.709 110.687 69.709C112.539 69.6308 114.382 70.0015 116.058 70.7893L114.007 82.728C112.47 82.1565 110.841 81.8708 109.2 81.8854C105.608 81.8854 101.3 84.6081 98.7713 92.1927V123.471H86.8343L86.8018 71.0269Z" fill="#FFCB08"/>
<path d="M118.488 97.2498C118.488 80.2978 128.917 69.7095 139.758 69.7095C152.303 69.7095 158.814 80.2978 158.814 94.7216C158.856 96.8569 158.667 98.9904 158.249 101.085H130.143C131.12 109.729 136.003 114.202 142.775 114.202C146.517 114.144 150.136 112.86 153.073 110.55L157.153 118.977C152.649 122.611 147.062 124.655 141.266 124.79C128.429 124.79 118.488 114.58 118.488 97.2498ZM148.559 91.9125C148.559 84.8896 145.781 80.395 139.877 80.395C135.07 80.395 130.827 84.3278 129.937 91.9125H148.559Z" fill="#FFCB08"/>
<path d="M165.249 109.242C165.249 97.9945 173.149 92.0954 191.565 89.7939C191.326 84.6403 189.394 80.7075 183.74 80.7075C179.508 80.7075 175.439 82.8684 171.196 85.6775L166.855 76.5911C172.281 72.7448 178.792 69.6548 185.922 69.6548C197.489 69.6548 203.437 77.6174 203.437 92.7976V123.471H193.671L192.856 117.853H192.53C188.537 121.786 183.979 124.789 178.759 124.789C170.631 124.789 165.249 118.134 165.249 109.242ZM191.565 108.864V98.2753C180.409 99.8744 176.654 103.429 176.654 108.107C176.654 112.234 179.183 114.017 182.688 114.017C186.193 114.017 188.635 112.137 191.565 108.864Z" fill="#FFCB08"/>
<path d="M215.84 105.115V81.886H209.405V71.6758L216.492 71.0277L217.881 56.8848H227.81V71.0277H239.052V81.886H227.81V105.115C227.81 111.112 229.981 113.921 234.006 113.921C235.558 113.856 237.08 113.489 238.489 112.84L240.441 122.856C237.392 124.119 234.129 124.79 230.827 124.833C219.997 124.79 215.84 116.827 215.84 105.115Z" fill="#FFCB08"/>
<path d="M243.946 97.2498C243.946 79.8332 254.451 69.7095 265.856 69.7095C277.261 69.7095 287.777 79.8332 287.777 97.2498C287.777 114.666 277.261 124.79 265.856 124.79C254.451 124.79 243.946 114.666 243.946 97.2498ZM275.558 97.2498C275.558 87.4179 272.052 80.9568 265.856 80.9568C259.661 80.9568 256.166 87.4395 256.166 97.2498C256.166 107.06 259.671 113.543 265.856 113.543C272.041 113.543 275.558 107.179 275.558 97.2498Z" fill="#FFCB08"/>
<path d="M297.793 71.0269H307.559L308.448 80.2971H308.698C312.03 73.4578 316.924 69.7088 321.644 69.7088C323.514 69.6253 325.378 69.9961 327.07 70.7892L325.03 82.674C323.495 82.1018 321.865 81.8161 320.223 81.8313C316.641 81.8313 312.323 84.5539 309.796 92.1386V123.471H297.858L297.793 71.0269Z" fill="#FFCB08"/>
<path d="M334.299 54.0757H346.345V111.857H370.869V123.472H334.299V54.0757Z" fill="#FFCB08"/>
<path d="M392.529 54.0757H406.701L426.092 123.472H413.516L409.274 105.677L399.658 64.6206L385.442 123.472H373.223L392.529 54.0757ZM394.081 87.3206L399.614 64.6314L404.834 87.3206C402.956 80.1141 401.329 72.1945 399.614 64.6314H399.214C397.662 72.1945 395.872 80.0925 394.081 87.3206Z" fill="#FFCB08"/>
<path d="M438.65 54.0757H453.136C465.519 54.0757 474.97 58.2894 474.97 71.2113C474.97 77.5859 471.878 84.1766 466.745 86.1969V86.6615C473.256 88.4442 478.063 93.6951 478.063 103.052C478.063 117.011 467.97 123.472 454.688 123.472H433.18L438.65 54.0757ZM452.247 82.3614C459.897 82.3614 463.239 78.796 463.239 73.275C463.239 67.1813 459.658 64.7504 452.388 64.7504L447.027 64.653L445.215 82.3614H452.247ZM453.669 112.797C461.905 112.797 466.375 109.426 466.375 102.209C466.375 95.4671 461.981 92.5606 453.669 92.5606H447.549L445.28 112.797H453.669Z" fill="#FFCB08"/>
</svg>
