<svg width="652" height="392" viewBox="0 0 652 392" fill="none" xmlns="http://www.w3.org/2000/svg">
<rect width="651.453" height="392" rx="33" fill="#FFE6EC"/>
<path d="M110.43 290.981C110.43 282.973 116.922 276.481 124.93 276.481H163.585C171.04 276.481 177.085 282.526 177.085 289.981V307.843H110.43V290.981Z" fill="#15047C" stroke="#15047C" stroke-width="5"/>
<path d="M100.568 137.842C112.992 130.323 127.138 126.155 141.625 125.725V157.358C132.91 157.773 124.422 160.354 116.935 164.885C108.733 169.849 102.047 176.962 97.6006 185.454C93.1541 193.947 91.1168 203.495 91.7097 213.062C92.3025 222.63 95.5029 231.853 100.964 239.732C106.425 247.61 113.938 253.844 122.69 257.757C131.441 261.669 141.096 263.112 150.609 261.929C160.122 260.745 169.129 256.981 176.655 251.043C183.724 245.466 189.232 238.171 192.663 229.867L226.534 229.867C223.692 236.666 219.384 245.13 214.445 253.165C208.617 262.647 202.083 271.245 196.235 275.859C184.179 285.371 169.75 291.402 154.511 293.298C139.273 295.194 123.806 292.882 109.787 286.614C95.7681 280.346 83.7323 270.36 74.9842 257.74C66.2361 245.119 61.1093 230.344 60.1595 215.017C59.2098 199.691 62.4733 184.396 69.5964 170.792C76.7195 157.187 87.4304 145.792 100.568 137.842Z" fill="#FFCB08" stroke="#15047C" stroke-width="5"/>
<rect x="207.885" y="191.892" width="76.4796" height="32.4314" rx="16.2157" transform="rotate(56.2649 207.885 191.892)" fill="white" stroke="#15047C" stroke-width="5"/>
<path d="M52.6795 331.318C52.6795 318.162 63.3451 307.496 76.5017 307.496H212.084C225.24 307.496 235.906 318.162 235.906 331.318V342.066H52.6795V331.318Z" fill="#FFCB08" stroke="#15047C" stroke-width="5"/>
<path d="M155.206 131.679C162.234 124.216 173.981 123.864 181.443 130.892L217.585 164.929L192.135 191.954L155.992 157.917C148.53 150.889 148.178 139.142 155.206 131.679Z" fill="#FFCB08" stroke="#15047C" stroke-width="5"/>
<rect x="77.6211" y="39.0185" width="80.156" height="24.7531" rx="12.3766" transform="rotate(41.5835 77.6211 39.0185)" fill="#FFCB08" stroke="#15047C" stroke-width="5"/>
<path d="M99.5796 75.4272C109.553 65.3663 125.794 65.2953 135.855 75.2687L204.312 143.13L168.195 179.564L99.738 111.703C89.6771 101.729 89.6062 85.4881 99.5796 75.4272Z" fill="#FFCB08" stroke="#15047C" stroke-width="5"/>
<rect x="43.0159" y="68.7294" width="69.4055" height="32.4314" rx="16.2157" transform="rotate(-47.4074 43.0159 68.7294)" fill="#FFCB08" stroke="#15047C" stroke-width="5"/>
<path d="M247.321 344.208V304.29H389.589C399.806 304.29 408.089 312.573 408.089 322.79V325.708C408.089 335.925 399.806 344.208 389.589 344.208H247.321Z" fill="#BDCFFE" stroke="#15047C" stroke-width="5"/>
<path d="M277.445 344.569C275.969 344.569 274.772 343.372 274.772 341.896V329.062C274.772 327.585 275.969 326.388 277.445 326.388C278.922 326.388 280.119 327.585 280.119 329.062V341.896C280.119 343.372 278.922 344.569 277.445 344.569Z" fill="#15047C"/>
<path d="M292.415 344.569C290.938 344.569 289.741 343.372 289.741 341.896V325.854C289.741 324.377 290.938 323.18 292.415 323.18C293.891 323.18 295.088 324.377 295.088 325.854V341.896C295.088 343.372 293.891 344.569 292.415 344.569Z" fill="#15047C"/>
<path d="M308.456 345.638C306.979 345.638 305.782 344.441 305.782 342.964V329.061C305.782 327.584 306.979 326.387 308.456 326.387C309.932 326.387 311.129 327.584 311.129 329.061V342.964C311.129 344.441 309.932 345.638 308.456 345.638Z" fill="#15047C"/>
<path d="M321.29 346.708C319.813 346.708 318.616 345.511 318.616 344.034V325.853C318.616 324.377 319.813 323.18 321.29 323.18C322.767 323.18 323.964 324.377 323.964 325.853V344.034C323.964 345.511 322.767 346.708 321.29 346.708Z" fill="#15047C"/>
<path d="M335.193 345.638C333.716 345.638 332.519 344.441 332.519 342.964V322.644C332.519 321.168 333.716 319.97 335.193 319.97C336.67 319.97 337.867 321.168 337.867 322.644V342.964C337.867 344.441 336.67 345.638 335.193 345.638Z" fill="#15047C"/>
<path d="M268.712 182.368H308.63V324.636C308.63 334.853 300.347 343.136 290.13 343.136H287.212C276.995 343.136 268.712 334.853 268.712 324.636V182.368Z" fill="#BDCFFE" stroke="#15047C" stroke-width="5"/>
<path d="M268.351 212.486C268.351 211.01 269.548 209.812 271.025 209.812H283.859C285.335 209.812 286.532 211.01 286.532 212.486C286.532 213.963 285.335 215.16 283.859 215.16H271.025C269.548 215.16 268.351 213.963 268.351 212.486Z" fill="#15047C"/>
<path d="M268.351 227.459C268.351 225.982 269.548 224.785 271.025 224.785H287.067C288.544 224.785 289.741 225.982 289.741 227.459C289.741 228.935 288.544 230.132 287.067 230.132H271.025C269.548 230.132 268.351 228.935 268.351 227.459Z" fill="#15047C"/>
<path d="M267.279 243.504C267.279 242.027 268.477 240.83 269.953 240.83H283.856C285.333 240.83 286.53 242.027 286.53 243.504C286.53 244.98 285.333 246.177 283.856 246.177H269.953C268.477 246.177 267.279 244.98 267.279 243.504Z" fill="#15047C"/>
<path d="M266.21 256.336C266.21 254.859 267.407 253.662 268.884 253.662H287.065C288.542 253.662 289.739 254.859 289.739 256.336C289.739 257.812 288.542 259.009 287.065 259.009H268.884C267.407 259.009 266.21 257.812 266.21 256.336Z" fill="#15047C"/>
<path d="M267.279 270.237C267.279 268.761 268.477 267.563 269.953 267.563H290.273C291.75 267.563 292.947 268.761 292.947 270.237C292.947 271.714 291.75 272.911 290.273 272.911H269.953C268.477 272.911 267.279 271.714 267.279 270.237Z" fill="#15047C"/>
<mask id="path-22-inside-1_314:1769" fill="white">
<path fill-rule="evenodd" clip-rule="evenodd" d="M456.411 201.497H418.402V249.101L363.182 333.864C359.281 339.851 363.577 347.777 370.723 347.777H504.092C511.237 347.777 515.533 339.851 511.633 333.864L456.411 249.099V201.497Z"/>
</mask>
<path fill-rule="evenodd" clip-rule="evenodd" d="M456.411 201.497H418.402V249.101L363.182 333.864C359.281 339.851 363.577 347.777 370.723 347.777H504.092C511.237 347.777 515.533 339.851 511.633 333.864L456.411 249.099V201.497Z" fill="#BDCFFE"/>
<path d="M418.402 201.497V196.497H413.402V201.497H418.402ZM456.411 201.497H461.411V196.497H456.411V201.497ZM418.402 249.101L422.592 251.83L423.402 250.586V249.101H418.402ZM363.182 333.864L367.371 336.593H367.371L363.182 333.864ZM511.633 333.864L507.444 336.593L507.444 336.593L511.633 333.864ZM456.411 249.099H451.411V250.584L452.222 251.828L456.411 249.099ZM418.402 206.497H456.411V196.497H418.402V206.497ZM423.402 249.101V201.497H413.402V249.101H423.402ZM367.371 336.593L422.592 251.83L414.213 246.372L358.992 331.135L367.371 336.593ZM370.723 342.777C367.547 342.777 365.638 339.254 367.371 336.593L358.992 331.135C352.925 340.447 359.608 352.777 370.723 352.777V342.777ZM504.092 342.777H370.723V352.777H504.092V342.777ZM507.444 336.593C509.177 339.254 507.268 342.777 504.092 342.777V352.777C515.207 352.777 521.89 340.448 515.823 331.135L507.444 336.593ZM452.222 251.828L507.444 336.593L515.823 331.135L460.601 246.369L452.222 251.828ZM451.411 201.497V249.099H461.411V201.497H451.411Z" fill="#15047C" mask="url(#path-22-inside-1_314:1769)"/>
<rect x="396.51" y="182.786" width="81.4171" height="26.0215" rx="13.0108" fill="white" stroke="#15047C" stroke-width="5"/>
<mask id="path-25-inside-2_314:1769" fill="white">
<path fill-rule="evenodd" clip-rule="evenodd" d="M400.639 276.361L363.182 333.857C359.281 339.844 363.577 347.77 370.723 347.77H504.092C511.237 347.77 515.533 339.844 511.633 333.857L474.176 276.361H400.639Z"/>
</mask>
<path fill-rule="evenodd" clip-rule="evenodd" d="M400.639 276.361L363.182 333.857C359.281 339.844 363.577 347.77 370.723 347.77H504.092C511.237 347.77 515.533 339.844 511.633 333.857L474.176 276.361H400.639Z" fill="#FFCB08"/>
<path d="M363.182 333.857L367.371 336.587L363.182 333.857ZM400.639 276.361V271.361H397.928L396.449 273.632L400.639 276.361ZM511.633 333.857L507.444 336.587L507.444 336.587L511.633 333.857ZM474.176 276.361L478.366 273.632L476.886 271.361H474.176V276.361ZM367.371 336.587L404.828 279.091L396.449 273.632L358.992 331.128L367.371 336.587ZM370.723 342.77C367.547 342.77 365.638 339.247 367.371 336.587L358.992 331.128C352.925 340.441 359.608 352.77 370.723 352.77V342.77ZM504.092 342.77H370.723V352.77H504.092V342.77ZM507.444 336.587C509.177 339.247 507.268 342.77 504.092 342.77V352.77C515.207 352.77 521.89 340.441 515.823 331.128L507.444 336.587ZM469.987 279.091L507.444 336.587L515.823 331.128L478.366 273.632L469.987 279.091ZM474.176 271.361H400.639V281.361H474.176V271.361Z" fill="#15047C" mask="url(#path-25-inside-2_314:1769)"/>
<rect x="524.534" y="182.289" width="75.1406" height="22.7367" rx="11.3683" fill="white" stroke="#15047C" stroke-width="4"/>
<mask id="path-28-inside-3_314:1769" fill="white">
<path fill-rule="evenodd" clip-rule="evenodd" d="M579.667 199.387H544.374V236.529C521.386 244.147 504.803 265.818 504.803 291.361C504.803 323.256 530.659 349.112 562.554 349.112C594.449 349.112 620.305 323.256 620.305 291.361C620.305 265.424 603.207 243.48 579.667 236.187V199.387Z"/>
</mask>
<path fill-rule="evenodd" clip-rule="evenodd" d="M579.667 199.387H544.374V236.529C521.386 244.147 504.803 265.818 504.803 291.361C504.803 323.256 530.659 349.112 562.554 349.112C594.449 349.112 620.305 323.256 620.305 291.361C620.305 265.424 603.207 243.48 579.667 236.187V199.387Z" fill="#BDCFFE"/>
<path d="M544.374 199.387V195.387H540.374V199.387H544.374ZM579.667 199.387H583.667V195.387H579.667V199.387ZM544.374 236.529L545.633 240.326L548.374 239.418V236.529H544.374ZM579.667 236.187H575.667V239.136L578.483 240.008L579.667 236.187ZM544.374 203.387H579.667V195.387H544.374V203.387ZM548.374 236.529V199.387H540.374V236.529H548.374ZM508.803 291.361C508.803 267.593 524.232 247.418 545.633 240.326L543.116 232.733C518.54 240.877 500.803 264.042 500.803 291.361H508.803ZM562.554 345.112C532.868 345.112 508.803 321.047 508.803 291.361H500.803C500.803 325.465 528.45 353.112 562.554 353.112V345.112ZM616.305 291.361C616.305 321.047 592.24 345.112 562.554 345.112V353.112C596.658 353.112 624.305 325.465 624.305 291.361H616.305ZM578.483 240.008C600.396 246.797 616.305 267.227 616.305 291.361H624.305C624.305 263.622 606.018 240.164 580.85 232.367L578.483 240.008ZM575.667 199.387V236.187H583.667V199.387H575.667Z" fill="#15047C" mask="url(#path-28-inside-3_314:1769)"/>
<mask id="path-30-inside-4_314:1769" fill="white">
<path fill-rule="evenodd" clip-rule="evenodd" d="M544.375 221.846V237.6C521.387 245.218 504.803 266.888 504.803 292.432C504.803 324.327 530.659 350.183 562.554 350.183C594.45 350.183 620.306 324.327 620.306 292.432C620.306 266.494 603.207 244.551 579.667 237.258V221.846H544.375Z"/>
</mask>
<path fill-rule="evenodd" clip-rule="evenodd" d="M544.375 221.846V237.6C521.387 245.218 504.803 266.888 504.803 292.432C504.803 324.327 530.659 350.183 562.554 350.183C594.45 350.183 620.306 324.327 620.306 292.432C620.306 266.494 603.207 244.551 579.667 237.258V221.846H544.375Z" fill="#FFCB08"/>
<path d="M544.375 221.846V217.846H540.375V221.846H544.375ZM544.375 237.6L545.633 241.397L548.375 240.488V237.6H544.375ZM579.667 237.258H575.667V240.206L578.483 241.079L579.667 237.258ZM579.667 221.846H583.667V217.846H579.667V221.846ZM540.375 221.846V237.6H548.375V221.846H540.375ZM543.116 233.803C518.541 241.947 500.803 265.113 500.803 292.432H508.803C508.803 268.663 524.233 248.488 545.633 241.397L543.116 233.803ZM500.803 292.432C500.803 326.536 528.45 354.183 562.554 354.183V346.183C532.868 346.183 508.803 322.118 508.803 292.432H500.803ZM562.554 354.183C596.659 354.183 624.306 326.536 624.306 292.432H616.306C616.306 322.118 592.24 346.183 562.554 346.183V354.183ZM624.306 292.432C624.306 264.692 606.018 241.234 580.851 233.437L578.483 241.079C600.396 247.868 616.306 268.297 616.306 292.432H624.306ZM583.667 237.258V221.846H575.667V237.258H583.667ZM579.667 217.846H544.375V225.846H579.667V217.846Z" fill="#15047C" mask="url(#path-30-inside-4_314:1769)"/>
</svg>
