<svg width="672" height="635" viewBox="0 0 672 635" fill="none" xmlns="http://www.w3.org/2000/svg">
<path d="M468.491 0H35C15.67 0 0 15.67 0 35V255.439C0 274.769 15.6701 290.439 35 290.439H468.491C487.821 290.439 503.491 274.769 503.491 255.439V35C503.491 15.67 487.821 0 468.491 0Z" fill="#522EAF"/>
<path d="M229.037 45.6479C229.037 44.6519 228.685 43.8901 227.982 43.3628C227.279 42.8237 226.014 42.2612 224.185 41.6753C222.357 41.0776 220.91 40.4917 219.844 39.9175C216.937 38.3472 215.484 36.2319 215.484 33.5718C215.484 32.189 215.871 30.9585 216.644 29.8804C217.43 28.7905 218.549 27.9409 220.002 27.3315C221.467 26.7222 223.107 26.4175 224.924 26.4175C226.752 26.4175 228.381 26.7515 229.81 27.4194C231.24 28.0757 232.348 29.0073 233.133 30.2144C233.93 31.4214 234.328 32.7925 234.328 34.3276H229.055C229.055 33.1558 228.685 32.2476 227.947 31.603C227.209 30.9468 226.172 30.6187 224.836 30.6187C223.547 30.6187 222.545 30.894 221.83 31.4448C221.115 31.9839 220.758 32.6987 220.758 33.5894C220.758 34.4214 221.174 35.1187 222.006 35.6812C222.85 36.2437 224.086 36.771 225.715 37.2632C228.715 38.1655 230.9 39.2847 232.271 40.6206C233.643 41.9565 234.328 43.6206 234.328 45.6128C234.328 47.8276 233.49 49.5679 231.814 50.8335C230.139 52.0874 227.883 52.7144 225.047 52.7144C223.078 52.7144 221.285 52.3569 219.668 51.6421C218.051 50.9155 216.814 49.9253 215.959 48.6714C215.115 47.4175 214.693 45.9644 214.693 44.312H219.984C219.984 47.1362 221.672 48.5483 225.047 48.5483C226.301 48.5483 227.279 48.2964 227.982 47.7925C228.685 47.2769 229.037 46.562 229.037 45.6479ZM254.701 43.0288C254.701 45.9585 254.033 48.3081 252.697 50.0776C251.373 51.8354 249.58 52.7144 247.318 52.7144C245.396 52.7144 243.844 52.0464 242.66 50.7104V59.6753H237.58V33.3433H242.291L242.467 35.2065C243.697 33.73 245.303 32.9917 247.283 32.9917C249.627 32.9917 251.449 33.8589 252.75 35.5933C254.051 37.3276 254.701 39.7183 254.701 42.7651V43.0288ZM249.621 42.6597C249.621 40.8901 249.305 39.5249 248.672 38.564C248.051 37.603 247.143 37.1226 245.947 37.1226C244.353 37.1226 243.258 37.7319 242.66 38.9507V46.7378C243.281 47.9917 244.389 48.6187 245.982 48.6187C248.408 48.6187 249.621 46.6323 249.621 42.6597ZM266.619 52.7144C263.83 52.7144 261.557 51.8589 259.799 50.1479C258.053 48.437 257.18 46.1577 257.18 43.3101V42.8179C257.18 40.9077 257.549 39.2026 258.287 37.7026C259.025 36.1909 260.068 35.0308 261.416 34.2222C262.775 33.4019 264.322 32.9917 266.057 32.9917C268.658 32.9917 270.703 33.812 272.191 35.4526C273.691 37.0933 274.441 39.4194 274.441 42.4312V44.5054H262.33C262.494 45.7476 262.986 46.7437 263.807 47.4937C264.639 48.2437 265.687 48.6187 266.953 48.6187C268.91 48.6187 270.439 47.9097 271.541 46.4917L274.037 49.2866C273.275 50.3647 272.244 51.2085 270.943 51.8179C269.643 52.4155 268.201 52.7144 266.619 52.7144ZM266.039 37.105C265.031 37.105 264.211 37.4448 263.578 38.1245C262.957 38.8042 262.559 39.7769 262.383 41.0425H269.449V40.6382C269.426 39.5132 269.121 38.646 268.535 38.0366C267.949 37.4155 267.117 37.105 266.039 37.105ZM286.096 52.7144C283.307 52.7144 281.033 51.8589 279.275 50.1479C277.529 48.437 276.656 46.1577 276.656 43.3101V42.8179C276.656 40.9077 277.025 39.2026 277.764 37.7026C278.502 36.1909 279.545 35.0308 280.893 34.2222C282.252 33.4019 283.799 32.9917 285.533 32.9917C288.135 32.9917 290.18 33.812 291.668 35.4526C293.168 37.0933 293.918 39.4194 293.918 42.4312V44.5054H281.807C281.971 45.7476 282.463 46.7437 283.283 47.4937C284.115 48.2437 285.164 48.6187 286.43 48.6187C288.387 48.6187 289.916 47.9097 291.018 46.4917L293.514 49.2866C292.752 50.3647 291.721 51.2085 290.42 51.8179C289.119 52.4155 287.678 52.7144 286.096 52.7144ZM285.516 37.105C284.508 37.105 283.687 37.4448 283.055 38.1245C282.434 38.8042 282.035 39.7769 281.859 41.0425H288.926V40.6382C288.902 39.5132 288.598 38.646 288.012 38.0366C287.426 37.4155 286.594 37.105 285.516 37.105ZM296.027 42.7124C296.027 39.7476 296.689 37.3862 298.014 35.6284C299.35 33.8706 301.172 32.9917 303.48 32.9917C305.332 32.9917 306.861 33.6831 308.068 35.0659V25.3628H313.166V52.3628H308.578L308.332 50.3413C307.066 51.9233 305.437 52.7144 303.445 52.7144C301.207 52.7144 299.408 51.8354 298.049 50.0776C296.701 48.3081 296.027 45.853 296.027 42.7124ZM301.107 43.0815C301.107 44.8628 301.418 46.228 302.039 47.1772C302.66 48.1265 303.562 48.6011 304.746 48.6011C306.316 48.6011 307.424 47.939 308.068 46.6147V39.1089C307.435 37.7847 306.34 37.1226 304.781 37.1226C302.332 37.1226 301.107 39.1089 301.107 43.0815ZM326.912 42.9937H322.711V52.3628H317.437V26.769H326.947C329.971 26.769 332.303 27.4429 333.943 28.7905C335.584 30.1382 336.404 32.0425 336.404 34.5034C336.404 36.2495 336.023 37.7085 335.262 38.8804C334.512 40.0405 333.369 40.9663 331.834 41.6577L337.371 52.1167V52.3628H331.711L326.912 42.9937ZM322.711 38.7222H326.965C328.289 38.7222 329.314 38.3882 330.041 37.7202C330.768 37.0405 331.131 36.1089 331.131 34.9253C331.131 33.7183 330.785 32.769 330.094 32.0776C329.414 31.3862 328.365 31.0405 326.947 31.0405H322.711V38.7222ZM351.486 50.4292C350.232 51.9526 348.498 52.7144 346.283 52.7144C344.244 52.7144 342.685 52.1284 341.607 50.9565C340.541 49.7847 339.996 48.0679 339.973 45.8062V33.3433H345.053V45.6304C345.053 47.6108 345.955 48.6011 347.76 48.6011C349.482 48.6011 350.666 48.0034 351.31 46.8081V33.3433H356.408V52.3628H351.627L351.486 50.4292ZM364.916 33.3433L365.074 35.5405C366.434 33.8413 368.256 32.9917 370.541 32.9917C372.557 32.9917 374.057 33.5835 375.041 34.7671C376.025 35.9507 376.529 37.7202 376.553 40.0757V52.3628H371.473V40.1987C371.473 39.1206 371.238 38.3413 370.769 37.8608C370.301 37.3687 369.521 37.1226 368.432 37.1226C367.002 37.1226 365.93 37.7319 365.215 38.9507V52.3628H360.135V33.3433H364.916ZM412.453 35.9468V31.5188H398.305C398.665 28.1708 398.701 24.8588 398.737 21.9068H394.057C394.021 24.8588 394.057 28.1348 393.697 31.5188H380.593V35.9468H392.977C391.573 42.1388 388.153 48.1148 379.909 51.7868C381.169 52.6868 382.429 54.2348 383.113 55.4228C390.745 51.7508 394.633 46.1348 396.577 40.1228C399.385 47.0708 403.561 52.3268 410.077 55.3868C410.761 54.1628 412.165 52.2548 413.245 51.3548C406.513 48.6188 402.157 42.9668 399.781 35.9468H412.453ZM437.365 38.1428C437.725 38.5388 438.085 38.9348 438.517 39.2948H427.141C427.537 38.9348 427.933 38.5388 428.293 38.1428H437.365ZM429.157 34.1828H435.781V35.2268H429.157V34.1828ZM429.157 30.9428H435.781V31.9868H429.157V30.9428ZM420.769 28.6388V27.0548H444.097V28.6388H439.777V27.4868H435.781V28.6388H429.157V27.4868H425.197V28.6388H420.769ZM426.025 42.4628V41.3828H438.841V42.4628H426.025ZM438.841 47.5388V48.6548H426.025V47.5388H438.841ZM426.025 45.5228V44.4428H438.841V45.5228H426.025ZM442.945 42.4988C444.277 43.2548 445.645 43.8668 447.013 44.2988C447.589 43.2908 448.741 41.8148 449.641 41.0228C447.085 40.4468 444.457 39.4028 442.369 38.1428H448.417V35.2268H439.777V34.1828H444.313V31.9868H439.777V30.9428H444.565V29.8628H448.165V23.8508H434.593V21.8708H430.309V23.8508H416.881V29.8628H420.517V30.9428H425.197V31.9868H420.949V34.1828H425.197V35.2268H416.665V38.1428H423.397C421.129 39.5828 418.249 40.7708 415.405 41.4548C416.233 42.2108 417.313 43.5788 417.853 44.5508C419.293 44.1188 420.733 43.5068 422.101 42.7868V50.7428H425.341C422.821 51.5708 419.401 52.3628 416.449 52.7588C417.241 53.4788 418.357 54.7028 418.969 55.4948C423.037 54.8828 427.969 53.5508 430.921 52.0028L429.049 50.7428H435.709L434.017 52.1108C438.013 53.2268 442.045 54.5588 444.385 55.4948L447.985 53.1908C445.969 52.5068 442.945 51.6068 439.921 50.7428H442.945V42.4988Z" fill="#FCEE21"/>
<path d="M48.2176 240.707H32.3056V235.991H48.2176V240.707ZM32.3056 249.455V244.595H48.2176V249.455H32.3056ZM55.9936 227.927V223.751H24.3496V227.927H37.3816C37.2016 229.331 36.9856 230.735 36.7336 232.031H27.9496V255.575H32.3056V253.415H48.2176V255.575H52.7896V232.031H41.2696C41.6656 230.735 42.0616 229.367 42.4216 227.927H55.9936ZM85.6216 252.119C85.2616 250.283 84.2536 247.763 83.1016 245.783H86.7376V251.651C86.7376 251.975 86.6296 252.083 86.2336 252.119H85.6216ZM78.0976 248.303V245.783H82.7776L79.8976 246.503C80.1856 247.007 80.4736 247.583 80.7256 248.159L78.0976 248.303ZM68.1976 238.043V236.387H74.0296V238.043H68.1976ZM68.1976 232.139H74.0296V233.759H68.1976V232.139ZM84.0376 233.759H78.0976V232.139H84.0376V233.759ZM84.0376 238.043H78.0976V236.387H84.0376V238.043ZM90.8776 242.255H78.0976V240.815H88.3576V229.331H64.0936V240.815H74.0296V242.255H61.8616V255.575H65.9296V245.783H74.0296V248.483C71.5456 248.591 69.2416 248.699 67.4056 248.771L67.7296 252.371C71.5816 252.119 76.8376 251.831 81.9136 251.471C82.1296 252.119 82.2736 252.731 82.3456 253.271L84.2176 252.803C84.5776 253.667 84.9016 254.675 85.0456 255.503C86.9536 255.503 88.4656 255.503 89.5096 254.927C90.6256 254.315 90.8776 253.415 90.8776 251.687V242.255ZM84.5056 223.751V221.951H80.2936V223.751H71.7976V221.951H67.5856V223.751H60.4576V227.315H67.5856V228.827H71.7976V227.315H80.2936V228.827H84.5056V227.315H91.7416V223.751H84.5056ZM120.218 236.027V238.043C120.218 238.439 120.074 238.547 119.606 238.547C119.21 238.547 117.59 238.547 116.294 238.511C115.682 237.683 114.782 236.747 113.918 236.027H120.218ZM120.218 233.039H111.434C114.602 232.571 117.626 231.851 120.218 230.735V233.039ZM113.414 227.279C113.918 227.099 114.386 226.919 114.818 226.739C115.826 227.351 116.834 228.071 117.554 228.683C116.978 228.899 116.366 229.115 115.754 229.295C115.142 228.647 114.278 227.927 113.414 227.279ZM122.414 225.947C121.694 226.595 120.794 227.207 119.822 227.711C119.138 227.135 118.274 226.487 117.338 225.947H122.414ZM128.462 248.267V244.739H124.718L125.582 243.443C124.286 242.867 122.126 242.147 120.11 241.607C121.118 241.535 121.946 241.427 122.666 241.175C123.926 240.707 124.286 239.879 124.286 238.187V236.027H129.002V233.039H124.286V230.735H120.254C123.422 229.367 125.978 227.423 127.598 224.615L125.33 223.499L124.646 223.643H120.11C120.506 223.319 120.866 222.995 121.226 222.671L117.698 221.951C115.718 223.643 112.154 225.155 107.222 226.127V221.951H103.334V227.459H100.634V222.923H97.0696V230.699H103.334V232.607H95.4136V235.955H97.5736V236.027C97.5736 237.251 97.2496 239.951 95.1976 241.571C96.1336 242.003 97.7176 242.867 98.4376 243.371C100.85 241.391 101.318 237.791 101.318 236.171V235.955H103.334V242.543H107.222V226.235C107.942 226.811 108.806 227.927 109.202 228.647C109.814 228.467 110.39 228.323 110.966 228.143C111.722 228.719 112.478 229.367 113.054 229.943C111.578 230.231 110.03 230.447 108.482 230.591C109.022 231.203 109.706 232.283 110.03 233.039H108.338V236.027H112.514L110.498 237.179C111.758 238.295 113.162 239.879 113.702 240.959L116.618 239.267C116.942 240.023 117.23 240.887 117.374 241.643H117.914L116.546 243.551C117.698 243.875 119.03 244.307 120.29 244.739H113.954V244.631V241.391H109.742V244.523V244.739H95.8816V248.267H107.906C105.998 249.851 102.218 251.255 95.0176 252.119C95.8096 253.055 96.8536 254.639 97.3216 255.647C106.034 254.567 110.318 252.335 112.298 249.779C115.214 253.451 119.57 254.999 127.058 255.503C127.562 254.279 128.57 252.551 129.47 251.615C123.062 251.471 118.814 250.607 116.294 248.267H128.462ZM145.706 243.659V250.859H140.846L143.798 249.599C143.258 247.943 141.854 245.495 140.486 243.659H145.706ZM141.638 232.679C144.23 230.519 146.462 228.179 148.01 226.019C149.594 228.179 151.97 230.519 154.634 232.679H141.638ZM155.21 243.659C154.418 245.567 152.978 248.195 151.79 249.887L154.13 250.859H150.206V243.659H161.294V239.987H150.206V236.423H157.082V234.551C158.882 235.847 160.754 237.035 162.554 237.971C163.346 236.639 164.318 235.199 165.398 234.119C159.71 231.815 153.914 227.279 150.026 221.843H145.598C142.934 226.163 137.174 231.563 131.054 234.551C131.99 235.451 133.178 236.999 133.718 238.007C135.554 237.035 137.39 235.883 139.082 234.659V236.423H145.706V239.987H134.762V243.659H140.27L136.994 245.063C138.254 246.827 139.442 249.239 139.982 250.859H132.962V254.531H163.418V250.859H155.282C156.542 249.347 157.946 247.151 159.314 245.171L155.21 243.659ZM200.57 241.463V237.827H186.35V235.775H197.258V232.247H186.35V230.807C187.106 230.015 187.79 229.079 188.474 228.035H189.878C190.814 229.331 191.714 230.843 192.11 231.851L195.782 230.303C195.494 229.691 194.99 228.863 194.414 228.035H200.39V224.543H190.454C190.742 223.931 191.03 223.283 191.21 222.707L187.106 221.663C186.386 223.715 185.198 225.803 183.758 227.459V224.543H175.874C176.198 223.931 176.486 223.355 176.738 222.743L172.634 221.663C171.374 224.723 169.25 227.819 166.91 229.763C167.882 230.267 169.646 231.455 170.474 232.139C171.554 231.023 172.742 229.619 173.822 228.035H174.182C174.866 229.331 175.586 230.807 175.838 231.815L179.51 230.303C179.294 229.691 178.898 228.863 178.43 228.035H183.254C182.858 228.467 182.426 228.899 181.958 229.259C182.498 229.547 183.29 230.051 184.046 230.519H181.886V232.247H171.446V235.775H181.886V237.827H167.81V241.463H188.978V243.623H169.178V247.223H175.802L173.894 248.663C175.982 250.211 178.322 252.443 179.33 254.063L182.642 251.399C181.742 250.139 180.014 248.519 178.286 247.223H188.978V251.039C188.978 251.471 188.798 251.615 188.222 251.615C187.646 251.615 185.486 251.615 183.65 251.543C184.226 252.659 184.946 254.315 185.198 255.539C187.862 255.539 189.914 255.503 191.426 254.891C192.974 254.243 193.406 253.235 193.406 251.111V247.223H199.49V243.623H193.406V241.463H200.57ZM210.758 222.095C208.958 227.207 205.826 232.319 202.586 235.559C203.306 236.603 204.494 238.943 204.89 240.023C205.682 239.159 206.51 238.187 207.302 237.107V255.503H211.406V230.735C212.738 228.359 213.89 225.839 214.826 223.355L210.758 222.095ZM217.418 237.971C216.59 241.967 215.078 246.035 213.026 248.555C214.07 249.095 215.87 250.175 216.698 250.859C218.714 247.943 220.55 243.407 221.594 238.835L217.418 237.971ZM232.394 232.355C232.214 233.939 231.998 235.451 231.818 236.567L235.454 237.179C235.958 235.091 236.57 231.743 237.002 228.827L233.978 228.251L233.294 228.395H220.91C221.558 226.631 222.134 224.867 222.602 223.031L218.426 222.095C217.202 227.027 215.042 231.995 212.306 235.055C213.278 235.703 215.006 237.107 215.762 237.863C216.95 236.351 218.138 234.443 219.146 232.355H223.322V250.715C223.322 251.183 223.142 251.327 222.674 251.327C222.17 251.327 220.658 251.327 219.146 251.291C219.794 252.443 220.442 254.351 220.622 255.611C222.926 255.611 224.654 255.431 225.914 254.747C227.21 254.027 227.57 252.839 227.57 250.787V232.355H232.394ZM228.866 238.907C230.594 242.615 232.106 247.547 232.502 250.751L236.606 249.347C236.102 246.107 234.554 241.319 232.682 237.611L228.866 238.907ZM250.682 228.179C252.734 227.171 254.57 226.055 255.938 224.975C257.378 226.091 259.286 227.207 261.338 228.179H250.682ZM248.054 230.699H264.47V229.547C266.594 230.375 268.79 231.095 270.698 231.563C271.31 230.483 272.21 229.043 273.038 228.071C267.602 227.099 261.878 225.083 257.738 221.987H253.85C250.754 224.615 244.922 227.135 239.198 228.395C239.918 229.223 240.818 230.771 241.25 231.743C243.518 231.131 245.858 230.303 248.054 229.367V230.699ZM249.17 234.335H262.85V235.955H249.17V234.335ZM245.174 238.475H267.098V231.851H245.174V238.475ZM258.278 246.395H270.122V243.479H258.278V241.967C262.022 241.751 265.55 241.391 268.466 240.887L265.694 238.583C260.618 239.447 251.114 239.807 243.194 239.771C243.518 240.383 243.806 241.607 243.878 242.327C247.118 242.363 250.61 242.327 254.066 242.183V243.479H242.438V246.395H254.066V247.655H239.81V250.571H254.066V251.687C254.066 252.191 253.85 252.335 253.274 252.371C252.77 252.371 250.646 252.371 248.882 252.299C249.422 253.199 250.034 254.567 250.286 255.575C253.022 255.611 254.966 255.575 256.406 255.071C257.846 254.567 258.278 253.739 258.278 251.795V250.571H272.534V247.655H258.278V246.395Z" fill="white"/>
<path d="M371.285 106.175C376.478 102.599 378.209 97.3275 376.478 90.3589H347.035C343.215 97.1786 344.195 102.652 352.227 106.175H371.285Z" fill="#E95454"/>
<path d="M359.107 124.924L347.646 90.3589L325.911 102.585L336.291 133.154L359.107 124.924Z" fill="#ED6362"/>
<path d="M387.312 133.154L397.992 102.585L375.628 90.3589L363.849 124.924L387.312 133.154Z" fill="#ED6362"/>
<path d="M361.8 193.626C372.406 193.623 382.577 189.995 390.075 183.54C397.574 177.085 401.786 168.331 401.786 159.204C401.786 150.076 397.574 141.323 390.075 134.868C382.577 128.412 372.406 124.784 361.8 124.781C348.622 148.269 347.572 171.26 361.8 193.626Z" fill="#FFCC5B"/>
<path d="M361.003 193.626C350.186 193.623 339.813 189.995 332.165 183.54C324.517 177.085 320.221 168.331 320.221 159.204C320.221 150.076 324.517 141.323 332.165 134.868C339.813 128.412 350.186 124.784 361.003 124.781V193.591" fill="#FDBC4B"/>
<path d="M351.128 181.532C350.959 181.532 350.792 181.505 350.635 181.452C343.575 179.061 337.916 174.372 334.902 168.417C331.888 162.461 331.767 155.727 334.564 149.695C334.629 149.555 334.725 149.427 334.848 149.319C334.97 149.211 335.116 149.124 335.278 149.065C335.44 149.005 335.614 148.973 335.79 148.97C335.966 148.968 336.141 148.995 336.305 149.051C336.468 149.106 336.618 149.189 336.744 149.294C336.87 149.398 336.971 149.523 337.041 149.662C337.111 149.8 337.148 149.948 337.15 150.099C337.153 150.249 337.121 150.399 337.055 150.539C334.519 156.006 334.629 162.11 337.361 167.508C340.092 172.906 345.222 177.156 351.621 179.324C351.911 179.422 352.152 179.603 352.302 179.836C352.452 180.07 352.502 180.341 352.444 180.602C352.385 180.864 352.222 181.1 351.982 181.27C351.741 181.439 351.439 181.532 351.128 181.532V181.532Z" fill="#EC9922"/>
<path d="M386.36 168.507C386.152 168.507 385.947 168.463 385.762 168.378C385.578 168.293 385.421 168.17 385.304 168.02C385.187 167.87 385.114 167.697 385.091 167.517C385.068 167.337 385.096 167.154 385.173 166.985C387.582 161.673 387.473 155.746 384.871 150.503C382.269 145.261 377.386 141.132 371.294 139.021C371.138 138.967 370.996 138.887 370.876 138.786C370.755 138.684 370.659 138.563 370.593 138.429C370.526 138.295 370.491 138.151 370.488 138.005C370.485 137.859 370.516 137.713 370.578 137.578C370.639 137.442 370.731 137.318 370.848 137.213C370.965 137.108 371.104 137.025 371.258 136.967C371.412 136.909 371.577 136.878 371.745 136.876C371.912 136.873 372.079 136.9 372.235 136.954C378.956 139.282 384.343 143.837 387.214 149.621C390.084 155.405 390.204 161.944 387.547 167.805C387.452 168.012 387.289 168.19 387.077 168.315C386.866 168.44 386.616 168.507 386.36 168.507V168.507Z" fill="#EC9922"/>
<path d="M369.59 175.95H356.369C355.627 175.949 354.916 175.692 354.392 175.235C353.868 174.778 353.573 174.158 353.572 173.512V169.763C353.572 169.116 353.867 168.496 354.392 168.039C354.916 167.582 355.627 167.325 356.369 167.325H357.837C357.863 167.325 357.888 167.321 357.912 167.312C357.936 167.304 357.957 167.291 357.976 167.275C357.994 167.259 358.008 167.241 358.018 167.22C358.028 167.199 358.033 167.177 358.033 167.155V158.414C357.563 158.513 357.073 158.506 356.608 158.394C356.143 158.281 355.719 158.067 355.375 157.772L352.336 155.122C351.813 154.664 351.519 154.044 351.519 153.397C351.519 152.751 351.813 152.131 352.336 151.673L363.151 142.241C363.542 141.9 364.04 141.668 364.583 141.574C365.125 141.48 365.687 141.528 366.198 141.713C366.709 141.898 367.146 142.21 367.453 142.611C367.761 143.012 367.925 143.484 367.925 143.966V167.154C367.925 167.199 367.945 167.242 367.982 167.274C368.018 167.306 368.067 167.324 368.119 167.324H369.589C370.33 167.324 371.041 167.581 371.565 168.039C372.089 168.496 372.384 169.116 372.385 169.762V173.511C372.385 173.831 372.313 174.148 372.172 174.444C372.032 174.74 371.826 175.008 371.567 175.235C371.307 175.461 370.999 175.641 370.66 175.764C370.321 175.886 369.957 175.95 369.59 175.95V175.95Z" fill="#EC9922"/>
<path d="M139.971 90.3589C113.269 90.3589 91.6355 113.469 91.6355 141.993C91.6355 170.516 113.269 193.626 139.971 193.626C166.672 193.626 188.306 170.516 188.306 141.993C188.306 113.469 166.672 90.3589 139.971 90.3589ZM151.099 163.25L133.909 149.904C133.305 149.425 132.954 148.676 132.954 147.885V112.845C132.954 111.47 134.007 110.346 135.293 110.346H144.648C145.935 110.346 146.987 111.47 146.987 112.845V141.514L159.363 151.133C160.416 151.945 160.63 153.506 159.87 154.63L154.374 162.708C153.614 163.812 152.152 164.062 151.099 163.25Z" fill="white"/>
<path d="M262.861 109.117C267.674 109.117 271.576 104.918 271.576 99.738C271.576 94.558 267.674 90.3589 262.861 90.3589C258.048 90.3589 254.147 94.558 254.147 99.738C254.147 104.918 258.048 109.117 262.861 109.117ZM234.121 152.392L231.434 159.137H219.29C216.082 159.137 213.48 161.937 213.48 165.39C213.48 168.843 216.082 171.643 219.29 171.643H233.351C236.846 171.643 239.992 169.407 241.359 165.959L242.955 161.949L241.018 160.718C237.873 158.719 235.56 155.761 234.121 152.392ZM283.195 134.126H275.201L270.47 123.721C268.201 118.729 264.034 115.079 259.254 113.768L246.35 109.637C241.212 108.308 235.862 109.529 231.673 112.986L224.471 118.928C221.924 121.029 221.441 124.952 223.397 127.694C225.352 130.435 228.995 130.949 231.541 128.85L238.746 122.908C240.139 121.758 241.913 121.345 243.334 121.709L246.003 122.563L239.202 139.638C236.911 145.399 238.964 152.146 243.977 155.331L259.405 165.134L254.418 182.276C253.459 185.571 255.164 189.078 258.225 190.11C258.804 190.305 259.388 190.399 259.964 190.399C262.435 190.399 264.726 188.685 265.505 186.012L271.249 166.265C272.322 162.207 270.724 157.848 267.32 155.638L256.202 148.576L261.886 133.28L265.566 141.376C267.019 144.568 270.091 146.63 273.393 146.63H283.195C286.403 146.63 289.004 143.83 289.004 140.377C289.004 136.924 286.403 134.126 283.195 134.126Z" fill="white"/>
</svg>
